%TF.GenerationSoftware,KiCad,Pcbnew,5.1.9-73d0e3b20d~88~ubuntu20.04.1*%
%TF.CreationDate,2021-02-19T15:41:20+03:00*%
%TF.ProjectId,DB9toUART,44423974-6f55-4415-9254-2e6b69636164,rev?*%
%TF.SameCoordinates,Original*%
%TF.FileFunction,Copper,L1,Top*%
%TF.FilePolarity,Positive*%
%FSLAX46Y46*%
G04 Gerber Fmt 4.6, Leading zero omitted, Abs format (unit mm)*
G04 Created by KiCad (PCBNEW 5.1.9-73d0e3b20d~88~ubuntu20.04.1) date 2021-02-19 15:41:20*
%MOMM*%
%LPD*%
G01*
G04 APERTURE LIST*
%TA.AperFunction,SMDPad,CuDef*%
%ADD10R,0.900000X0.800000*%
%TD*%
%TA.AperFunction,ComponentPad*%
%ADD11O,2.000000X2.000000*%
%TD*%
%TA.AperFunction,ComponentPad*%
%ADD12R,2.000000X2.000000*%
%TD*%
%TA.AperFunction,SMDPad,CuDef*%
%ADD13O,3.000000X2.000000*%
%TD*%
%TA.AperFunction,SMDPad,CuDef*%
%ADD14R,3.000000X2.000000*%
%TD*%
%TA.AperFunction,ViaPad*%
%ADD15C,0.800000*%
%TD*%
%TA.AperFunction,Conductor*%
%ADD16C,0.500000*%
%TD*%
%TA.AperFunction,Conductor*%
%ADD17C,0.200000*%
%TD*%
%TA.AperFunction,Conductor*%
%ADD18C,0.100000*%
%TD*%
G04 APERTURE END LIST*
%TO.P,R10,2*%
%TO.N,Net-(D12-Pad2)*%
%TA.AperFunction,SMDPad,CuDef*%
G36*
G01*
X103461000Y-99801000D02*
X103461000Y-100351000D01*
G75*
G02*
X103261000Y-100551000I-200000J0D01*
G01*
X102861000Y-100551000D01*
G75*
G02*
X102661000Y-100351000I0J200000D01*
G01*
X102661000Y-99801000D01*
G75*
G02*
X102861000Y-99601000I200000J0D01*
G01*
X103261000Y-99601000D01*
G75*
G02*
X103461000Y-99801000I0J-200000D01*
G01*
G37*
%TD.AperFunction*%
%TO.P,R10,1*%
%TO.N,Net-(C2-Pad1)*%
%TA.AperFunction,SMDPad,CuDef*%
G36*
G01*
X105111000Y-99801000D02*
X105111000Y-100351000D01*
G75*
G02*
X104911000Y-100551000I-200000J0D01*
G01*
X104511000Y-100551000D01*
G75*
G02*
X104311000Y-100351000I0J200000D01*
G01*
X104311000Y-99801000D01*
G75*
G02*
X104511000Y-99601000I200000J0D01*
G01*
X104911000Y-99601000D01*
G75*
G02*
X105111000Y-99801000I0J-200000D01*
G01*
G37*
%TD.AperFunction*%
%TD*%
%TO.P,R9,2*%
%TO.N,Net-(Q2-Pad3)*%
%TA.AperFunction,SMDPad,CuDef*%
G36*
G01*
X103865000Y-93135000D02*
X104415000Y-93135000D01*
G75*
G02*
X104615000Y-93335000I0J-200000D01*
G01*
X104615000Y-93735000D01*
G75*
G02*
X104415000Y-93935000I-200000J0D01*
G01*
X103865000Y-93935000D01*
G75*
G02*
X103665000Y-93735000I0J200000D01*
G01*
X103665000Y-93335000D01*
G75*
G02*
X103865000Y-93135000I200000J0D01*
G01*
G37*
%TD.AperFunction*%
%TO.P,R9,1*%
%TO.N,urx*%
%TA.AperFunction,SMDPad,CuDef*%
G36*
G01*
X103865000Y-91485000D02*
X104415000Y-91485000D01*
G75*
G02*
X104615000Y-91685000I0J-200000D01*
G01*
X104615000Y-92085000D01*
G75*
G02*
X104415000Y-92285000I-200000J0D01*
G01*
X103865000Y-92285000D01*
G75*
G02*
X103665000Y-92085000I0J200000D01*
G01*
X103665000Y-91685000D01*
G75*
G02*
X103865000Y-91485000I200000J0D01*
G01*
G37*
%TD.AperFunction*%
%TD*%
%TO.P,R8,2*%
%TO.N,utx*%
%TA.AperFunction,SMDPad,CuDef*%
G36*
G01*
X104415000Y-89300000D02*
X103865000Y-89300000D01*
G75*
G02*
X103665000Y-89100000I0J200000D01*
G01*
X103665000Y-88700000D01*
G75*
G02*
X103865000Y-88500000I200000J0D01*
G01*
X104415000Y-88500000D01*
G75*
G02*
X104615000Y-88700000I0J-200000D01*
G01*
X104615000Y-89100000D01*
G75*
G02*
X104415000Y-89300000I-200000J0D01*
G01*
G37*
%TD.AperFunction*%
%TO.P,R8,1*%
%TO.N,Net-(D10-Pad1)*%
%TA.AperFunction,SMDPad,CuDef*%
G36*
G01*
X104415000Y-90950000D02*
X103865000Y-90950000D01*
G75*
G02*
X103665000Y-90750000I0J200000D01*
G01*
X103665000Y-90350000D01*
G75*
G02*
X103865000Y-90150000I200000J0D01*
G01*
X104415000Y-90150000D01*
G75*
G02*
X104615000Y-90350000I0J-200000D01*
G01*
X104615000Y-90750000D01*
G75*
G02*
X104415000Y-90950000I-200000J0D01*
G01*
G37*
%TD.AperFunction*%
%TD*%
%TO.P,R7,2*%
%TO.N,Net-(D11-Pad1)*%
%TA.AperFunction,SMDPad,CuDef*%
G36*
G01*
X102890000Y-87101000D02*
X102890000Y-87651000D01*
G75*
G02*
X102690000Y-87851000I-200000J0D01*
G01*
X102290000Y-87851000D01*
G75*
G02*
X102090000Y-87651000I0J200000D01*
G01*
X102090000Y-87101000D01*
G75*
G02*
X102290000Y-86901000I200000J0D01*
G01*
X102690000Y-86901000D01*
G75*
G02*
X102890000Y-87101000I0J-200000D01*
G01*
G37*
%TD.AperFunction*%
%TO.P,R7,1*%
%TO.N,utx*%
%TA.AperFunction,SMDPad,CuDef*%
G36*
G01*
X104540000Y-87101000D02*
X104540000Y-87651000D01*
G75*
G02*
X104340000Y-87851000I-200000J0D01*
G01*
X103940000Y-87851000D01*
G75*
G02*
X103740000Y-87651000I0J200000D01*
G01*
X103740000Y-87101000D01*
G75*
G02*
X103940000Y-86901000I200000J0D01*
G01*
X104340000Y-86901000D01*
G75*
G02*
X104540000Y-87101000I0J-200000D01*
G01*
G37*
%TD.AperFunction*%
%TD*%
%TO.P,R6,2*%
%TO.N,Net-(Q2-Pad3)*%
%TA.AperFunction,SMDPad,CuDef*%
G36*
G01*
X103778000Y-96245000D02*
X103778000Y-96795000D01*
G75*
G02*
X103578000Y-96995000I-200000J0D01*
G01*
X103178000Y-96995000D01*
G75*
G02*
X102978000Y-96795000I0J200000D01*
G01*
X102978000Y-96245000D01*
G75*
G02*
X103178000Y-96045000I200000J0D01*
G01*
X103578000Y-96045000D01*
G75*
G02*
X103778000Y-96245000I0J-200000D01*
G01*
G37*
%TD.AperFunction*%
%TO.P,R6,1*%
%TO.N,Net-(C2-Pad1)*%
%TA.AperFunction,SMDPad,CuDef*%
G36*
G01*
X105428000Y-96245000D02*
X105428000Y-96795000D01*
G75*
G02*
X105228000Y-96995000I-200000J0D01*
G01*
X104828000Y-96995000D01*
G75*
G02*
X104628000Y-96795000I0J200000D01*
G01*
X104628000Y-96245000D01*
G75*
G02*
X104828000Y-96045000I200000J0D01*
G01*
X105228000Y-96045000D01*
G75*
G02*
X105428000Y-96245000I0J-200000D01*
G01*
G37*
%TD.AperFunction*%
%TD*%
%TO.P,R5,2*%
%TO.N,Net-(Q1-Pad3)*%
%TA.AperFunction,SMDPad,CuDef*%
G36*
G01*
X99485000Y-88159000D02*
X99485000Y-87609000D01*
G75*
G02*
X99685000Y-87409000I200000J0D01*
G01*
X100085000Y-87409000D01*
G75*
G02*
X100285000Y-87609000I0J-200000D01*
G01*
X100285000Y-88159000D01*
G75*
G02*
X100085000Y-88359000I-200000J0D01*
G01*
X99685000Y-88359000D01*
G75*
G02*
X99485000Y-88159000I0J200000D01*
G01*
G37*
%TD.AperFunction*%
%TO.P,R5,1*%
%TO.N,+12VA*%
%TA.AperFunction,SMDPad,CuDef*%
G36*
G01*
X97835000Y-88159000D02*
X97835000Y-87609000D01*
G75*
G02*
X98035000Y-87409000I200000J0D01*
G01*
X98435000Y-87409000D01*
G75*
G02*
X98635000Y-87609000I0J-200000D01*
G01*
X98635000Y-88159000D01*
G75*
G02*
X98435000Y-88359000I-200000J0D01*
G01*
X98035000Y-88359000D01*
G75*
G02*
X97835000Y-88159000I0J200000D01*
G01*
G37*
%TD.AperFunction*%
%TD*%
%TO.P,R4,2*%
%TO.N,Net-(D8-Pad2)*%
%TA.AperFunction,SMDPad,CuDef*%
G36*
G01*
X97580000Y-95779000D02*
X97580000Y-95229000D01*
G75*
G02*
X97780000Y-95029000I200000J0D01*
G01*
X98180000Y-95029000D01*
G75*
G02*
X98380000Y-95229000I0J-200000D01*
G01*
X98380000Y-95779000D01*
G75*
G02*
X98180000Y-95979000I-200000J0D01*
G01*
X97780000Y-95979000D01*
G75*
G02*
X97580000Y-95779000I0J200000D01*
G01*
G37*
%TD.AperFunction*%
%TO.P,R4,1*%
%TO.N,TX*%
%TA.AperFunction,SMDPad,CuDef*%
G36*
G01*
X95930000Y-95779000D02*
X95930000Y-95229000D01*
G75*
G02*
X96130000Y-95029000I200000J0D01*
G01*
X96530000Y-95029000D01*
G75*
G02*
X96730000Y-95229000I0J-200000D01*
G01*
X96730000Y-95779000D01*
G75*
G02*
X96530000Y-95979000I-200000J0D01*
G01*
X96130000Y-95979000D01*
G75*
G02*
X95930000Y-95779000I0J200000D01*
G01*
G37*
%TD.AperFunction*%
%TD*%
%TO.P,R3,2*%
%TO.N,TX*%
%TA.AperFunction,SMDPad,CuDef*%
G36*
G01*
X96794000Y-93705000D02*
X96794000Y-94255000D01*
G75*
G02*
X96594000Y-94455000I-200000J0D01*
G01*
X96194000Y-94455000D01*
G75*
G02*
X95994000Y-94255000I0J200000D01*
G01*
X95994000Y-93705000D01*
G75*
G02*
X96194000Y-93505000I200000J0D01*
G01*
X96594000Y-93505000D01*
G75*
G02*
X96794000Y-93705000I0J-200000D01*
G01*
G37*
%TD.AperFunction*%
%TO.P,R3,1*%
%TO.N,Net-(D9-Pad1)*%
%TA.AperFunction,SMDPad,CuDef*%
G36*
G01*
X98444000Y-93705000D02*
X98444000Y-94255000D01*
G75*
G02*
X98244000Y-94455000I-200000J0D01*
G01*
X97844000Y-94455000D01*
G75*
G02*
X97644000Y-94255000I0J200000D01*
G01*
X97644000Y-93705000D01*
G75*
G02*
X97844000Y-93505000I200000J0D01*
G01*
X98244000Y-93505000D01*
G75*
G02*
X98444000Y-93705000I0J-200000D01*
G01*
G37*
%TD.AperFunction*%
%TD*%
%TO.P,R2,2*%
%TO.N,Net-(Q1-Pad3)*%
%TA.AperFunction,SMDPad,CuDef*%
G36*
G01*
X97516000Y-92731000D02*
X97516000Y-92181000D01*
G75*
G02*
X97716000Y-91981000I200000J0D01*
G01*
X98116000Y-91981000D01*
G75*
G02*
X98316000Y-92181000I0J-200000D01*
G01*
X98316000Y-92731000D01*
G75*
G02*
X98116000Y-92931000I-200000J0D01*
G01*
X97716000Y-92931000D01*
G75*
G02*
X97516000Y-92731000I0J200000D01*
G01*
G37*
%TD.AperFunction*%
%TO.P,R2,1*%
%TO.N,RX*%
%TA.AperFunction,SMDPad,CuDef*%
G36*
G01*
X95866000Y-92731000D02*
X95866000Y-92181000D01*
G75*
G02*
X96066000Y-91981000I200000J0D01*
G01*
X96466000Y-91981000D01*
G75*
G02*
X96666000Y-92181000I0J-200000D01*
G01*
X96666000Y-92731000D01*
G75*
G02*
X96466000Y-92931000I-200000J0D01*
G01*
X96066000Y-92931000D01*
G75*
G02*
X95866000Y-92731000I0J200000D01*
G01*
G37*
%TD.AperFunction*%
%TD*%
%TO.P,R1,2*%
%TO.N,Net-(D7-Pad2)*%
%TA.AperFunction,SMDPad,CuDef*%
G36*
G01*
X93492000Y-87101000D02*
X93492000Y-87651000D01*
G75*
G02*
X93292000Y-87851000I-200000J0D01*
G01*
X92892000Y-87851000D01*
G75*
G02*
X92692000Y-87651000I0J200000D01*
G01*
X92692000Y-87101000D01*
G75*
G02*
X92892000Y-86901000I200000J0D01*
G01*
X93292000Y-86901000D01*
G75*
G02*
X93492000Y-87101000I0J-200000D01*
G01*
G37*
%TD.AperFunction*%
%TO.P,R1,1*%
%TO.N,+12VA*%
%TA.AperFunction,SMDPad,CuDef*%
G36*
G01*
X95142000Y-87101000D02*
X95142000Y-87651000D01*
G75*
G02*
X94942000Y-87851000I-200000J0D01*
G01*
X94542000Y-87851000D01*
G75*
G02*
X94342000Y-87651000I0J200000D01*
G01*
X94342000Y-87101000D01*
G75*
G02*
X94542000Y-86901000I200000J0D01*
G01*
X94942000Y-86901000D01*
G75*
G02*
X95142000Y-87101000I0J-200000D01*
G01*
G37*
%TD.AperFunction*%
%TD*%
D10*
%TO.P,Q2,3*%
%TO.N,Net-(Q2-Pad3)*%
X103600000Y-94930000D03*
%TO.P,Q2,2*%
%TO.N,GNDD*%
X101600000Y-95880000D03*
%TO.P,Q2,1*%
%TO.N,Net-(D9-Pad1)*%
X101600000Y-93980000D03*
%TD*%
%TO.P,Q1,3*%
%TO.N,Net-(Q1-Pad3)*%
X98298000Y-90170000D03*
%TO.P,Q1,2*%
%TO.N,GNDD*%
X100298000Y-89220000D03*
%TO.P,Q1,1*%
%TO.N,Net-(D10-Pad1)*%
X100298000Y-91120000D03*
%TD*%
D11*
%TO.P,J3,4*%
%TO.N,GNDD*%
X106426000Y-86614000D03*
%TO.P,J3,3*%
%TO.N,utx*%
X106426000Y-89154000D03*
%TO.P,J3,2*%
%TO.N,urx*%
X106426000Y-91694000D03*
D12*
%TO.P,J3,1*%
%TO.N,Net-(C2-Pad1)*%
X106426000Y-94234000D03*
%TD*%
D13*
%TO.P,J2,5*%
%TO.N,GNDD*%
X93726000Y-99568000D03*
%TO.P,J2,4*%
%TO.N,Net-(D5-Pad2)*%
X93726000Y-97028000D03*
%TO.P,J2,3*%
%TO.N,TX*%
X93726000Y-94488000D03*
%TO.P,J2,2*%
%TO.N,RX*%
X93726000Y-91948000D03*
D14*
%TO.P,J2,1*%
%TO.N,Net-(D6-Pad2)*%
X93726000Y-89408000D03*
%TD*%
D13*
%TO.P,J1,4*%
%TO.N,Net-(D1-Pad2)*%
X90170000Y-98298000D03*
%TO.P,J1,3*%
%TO.N,Net-(D2-Pad2)*%
X90170000Y-95758000D03*
%TO.P,J1,2*%
%TO.N,Net-(D3-Pad2)*%
X90170000Y-93218000D03*
%TO.P,J1,1*%
%TO.N,Net-(D4-Pad2)*%
X90170000Y-90678000D03*
%TD*%
%TO.P,D12,2*%
%TO.N,Net-(D12-Pad2)*%
%TA.AperFunction,SMDPad,CuDef*%
G36*
G01*
X100889750Y-98748000D02*
X101802250Y-98748000D01*
G75*
G02*
X102046000Y-98991750I0J-243750D01*
G01*
X102046000Y-99479250D01*
G75*
G02*
X101802250Y-99723000I-243750J0D01*
G01*
X100889750Y-99723000D01*
G75*
G02*
X100646000Y-99479250I0J243750D01*
G01*
X100646000Y-98991750D01*
G75*
G02*
X100889750Y-98748000I243750J0D01*
G01*
G37*
%TD.AperFunction*%
%TO.P,D12,1*%
%TO.N,GNDD*%
%TA.AperFunction,SMDPad,CuDef*%
G36*
G01*
X100889750Y-96873000D02*
X101802250Y-96873000D01*
G75*
G02*
X102046000Y-97116750I0J-243750D01*
G01*
X102046000Y-97604250D01*
G75*
G02*
X101802250Y-97848000I-243750J0D01*
G01*
X100889750Y-97848000D01*
G75*
G02*
X100646000Y-97604250I0J243750D01*
G01*
X100646000Y-97116750D01*
G75*
G02*
X100889750Y-96873000I243750J0D01*
G01*
G37*
%TD.AperFunction*%
%TD*%
%TO.P,D11,2*%
%TO.N,GNDD*%
%TA.AperFunction,SMDPad,CuDef*%
G36*
G01*
X102341500Y-85141750D02*
X102341500Y-86054250D01*
G75*
G02*
X102097750Y-86298000I-243750J0D01*
G01*
X101610250Y-86298000D01*
G75*
G02*
X101366500Y-86054250I0J243750D01*
G01*
X101366500Y-85141750D01*
G75*
G02*
X101610250Y-84898000I243750J0D01*
G01*
X102097750Y-84898000D01*
G75*
G02*
X102341500Y-85141750I0J-243750D01*
G01*
G37*
%TD.AperFunction*%
%TO.P,D11,1*%
%TO.N,Net-(D11-Pad1)*%
%TA.AperFunction,SMDPad,CuDef*%
G36*
G01*
X104216500Y-85141750D02*
X104216500Y-86054250D01*
G75*
G02*
X103972750Y-86298000I-243750J0D01*
G01*
X103485250Y-86298000D01*
G75*
G02*
X103241500Y-86054250I0J243750D01*
G01*
X103241500Y-85141750D01*
G75*
G02*
X103485250Y-84898000I243750J0D01*
G01*
X103972750Y-84898000D01*
G75*
G02*
X104216500Y-85141750I0J-243750D01*
G01*
G37*
%TD.AperFunction*%
%TD*%
%TO.P,D10,2*%
%TO.N,GNDD*%
%TA.AperFunction,SMDPad,CuDef*%
G36*
G01*
X102987000Y-90027000D02*
X101737000Y-90027000D01*
G75*
G02*
X101487000Y-89777000I0J250000D01*
G01*
X101487000Y-89027000D01*
G75*
G02*
X101737000Y-88777000I250000J0D01*
G01*
X102987000Y-88777000D01*
G75*
G02*
X103237000Y-89027000I0J-250000D01*
G01*
X103237000Y-89777000D01*
G75*
G02*
X102987000Y-90027000I-250000J0D01*
G01*
G37*
%TD.AperFunction*%
%TO.P,D10,1*%
%TO.N,Net-(D10-Pad1)*%
%TA.AperFunction,SMDPad,CuDef*%
G36*
G01*
X102987000Y-92827000D02*
X101737000Y-92827000D01*
G75*
G02*
X101487000Y-92577000I0J250000D01*
G01*
X101487000Y-91827000D01*
G75*
G02*
X101737000Y-91577000I250000J0D01*
G01*
X102987000Y-91577000D01*
G75*
G02*
X103237000Y-91827000I0J-250000D01*
G01*
X103237000Y-92577000D01*
G75*
G02*
X102987000Y-92827000I-250000J0D01*
G01*
G37*
%TD.AperFunction*%
%TD*%
%TO.P,D9,2*%
%TO.N,GNDD*%
%TA.AperFunction,SMDPad,CuDef*%
G36*
G01*
X99197000Y-95133000D02*
X100447000Y-95133000D01*
G75*
G02*
X100697000Y-95383000I0J-250000D01*
G01*
X100697000Y-96133000D01*
G75*
G02*
X100447000Y-96383000I-250000J0D01*
G01*
X99197000Y-96383000D01*
G75*
G02*
X98947000Y-96133000I0J250000D01*
G01*
X98947000Y-95383000D01*
G75*
G02*
X99197000Y-95133000I250000J0D01*
G01*
G37*
%TD.AperFunction*%
%TO.P,D9,1*%
%TO.N,Net-(D9-Pad1)*%
%TA.AperFunction,SMDPad,CuDef*%
G36*
G01*
X99197000Y-92333000D02*
X100447000Y-92333000D01*
G75*
G02*
X100697000Y-92583000I0J-250000D01*
G01*
X100697000Y-93333000D01*
G75*
G02*
X100447000Y-93583000I-250000J0D01*
G01*
X99197000Y-93583000D01*
G75*
G02*
X98947000Y-93333000I0J250000D01*
G01*
X98947000Y-92583000D01*
G75*
G02*
X99197000Y-92333000I250000J0D01*
G01*
G37*
%TD.AperFunction*%
%TD*%
%TO.P,D8,2*%
%TO.N,Net-(D8-Pad2)*%
%TA.AperFunction,SMDPad,CuDef*%
G36*
G01*
X97261500Y-97079750D02*
X97261500Y-97992250D01*
G75*
G02*
X97017750Y-98236000I-243750J0D01*
G01*
X96530250Y-98236000D01*
G75*
G02*
X96286500Y-97992250I0J243750D01*
G01*
X96286500Y-97079750D01*
G75*
G02*
X96530250Y-96836000I243750J0D01*
G01*
X97017750Y-96836000D01*
G75*
G02*
X97261500Y-97079750I0J-243750D01*
G01*
G37*
%TD.AperFunction*%
%TO.P,D8,1*%
%TO.N,GNDD*%
%TA.AperFunction,SMDPad,CuDef*%
G36*
G01*
X99136500Y-97079750D02*
X99136500Y-97992250D01*
G75*
G02*
X98892750Y-98236000I-243750J0D01*
G01*
X98405250Y-98236000D01*
G75*
G02*
X98161500Y-97992250I0J243750D01*
G01*
X98161500Y-97079750D01*
G75*
G02*
X98405250Y-96836000I243750J0D01*
G01*
X98892750Y-96836000D01*
G75*
G02*
X99136500Y-97079750I0J-243750D01*
G01*
G37*
%TD.AperFunction*%
%TD*%
%TO.P,D7,2*%
%TO.N,Net-(D7-Pad2)*%
%TA.AperFunction,SMDPad,CuDef*%
G36*
G01*
X94292000Y-85395750D02*
X94292000Y-86308250D01*
G75*
G02*
X94048250Y-86552000I-243750J0D01*
G01*
X93560750Y-86552000D01*
G75*
G02*
X93317000Y-86308250I0J243750D01*
G01*
X93317000Y-85395750D01*
G75*
G02*
X93560750Y-85152000I243750J0D01*
G01*
X94048250Y-85152000D01*
G75*
G02*
X94292000Y-85395750I0J-243750D01*
G01*
G37*
%TD.AperFunction*%
%TO.P,D7,1*%
%TO.N,GNDD*%
%TA.AperFunction,SMDPad,CuDef*%
G36*
G01*
X96167000Y-85395750D02*
X96167000Y-86308250D01*
G75*
G02*
X95923250Y-86552000I-243750J0D01*
G01*
X95435750Y-86552000D01*
G75*
G02*
X95192000Y-86308250I0J243750D01*
G01*
X95192000Y-85395750D01*
G75*
G02*
X95435750Y-85152000I243750J0D01*
G01*
X95923250Y-85152000D01*
G75*
G02*
X96167000Y-85395750I0J-243750D01*
G01*
G37*
%TD.AperFunction*%
%TD*%
%TO.P,D6,2*%
%TO.N,Net-(D6-Pad2)*%
%TA.AperFunction,SMDPad,CuDef*%
G36*
G01*
X95895000Y-90307000D02*
X97145000Y-90307000D01*
G75*
G02*
X97395000Y-90557000I0J-250000D01*
G01*
X97395000Y-91307000D01*
G75*
G02*
X97145000Y-91557000I-250000J0D01*
G01*
X95895000Y-91557000D01*
G75*
G02*
X95645000Y-91307000I0J250000D01*
G01*
X95645000Y-90557000D01*
G75*
G02*
X95895000Y-90307000I250000J0D01*
G01*
G37*
%TD.AperFunction*%
%TO.P,D6,1*%
%TO.N,+12VA*%
%TA.AperFunction,SMDPad,CuDef*%
G36*
G01*
X95895000Y-87507000D02*
X97145000Y-87507000D01*
G75*
G02*
X97395000Y-87757000I0J-250000D01*
G01*
X97395000Y-88507000D01*
G75*
G02*
X97145000Y-88757000I-250000J0D01*
G01*
X95895000Y-88757000D01*
G75*
G02*
X95645000Y-88507000I0J250000D01*
G01*
X95645000Y-87757000D01*
G75*
G02*
X95895000Y-87507000I250000J0D01*
G01*
G37*
%TD.AperFunction*%
%TD*%
%TO.P,D5,2*%
%TO.N,Net-(D5-Pad2)*%
%TA.AperFunction,SMDPad,CuDef*%
G36*
G01*
X97015000Y-98943000D02*
X97015000Y-100193000D01*
G75*
G02*
X96765000Y-100443000I-250000J0D01*
G01*
X96015000Y-100443000D01*
G75*
G02*
X95765000Y-100193000I0J250000D01*
G01*
X95765000Y-98943000D01*
G75*
G02*
X96015000Y-98693000I250000J0D01*
G01*
X96765000Y-98693000D01*
G75*
G02*
X97015000Y-98943000I0J-250000D01*
G01*
G37*
%TD.AperFunction*%
%TO.P,D5,1*%
%TO.N,+12VA*%
%TA.AperFunction,SMDPad,CuDef*%
G36*
G01*
X99815000Y-98943000D02*
X99815000Y-100193000D01*
G75*
G02*
X99565000Y-100443000I-250000J0D01*
G01*
X98815000Y-100443000D01*
G75*
G02*
X98565000Y-100193000I0J250000D01*
G01*
X98565000Y-98943000D01*
G75*
G02*
X98815000Y-98693000I250000J0D01*
G01*
X99565000Y-98693000D01*
G75*
G02*
X99815000Y-98943000I0J-250000D01*
G01*
G37*
%TD.AperFunction*%
%TD*%
%TO.P,D4,2*%
%TO.N,Net-(D4-Pad2)*%
%TA.AperFunction,SMDPad,CuDef*%
G36*
G01*
X86881000Y-91557000D02*
X86881000Y-90307000D01*
G75*
G02*
X87131000Y-90057000I250000J0D01*
G01*
X87881000Y-90057000D01*
G75*
G02*
X88131000Y-90307000I0J-250000D01*
G01*
X88131000Y-91557000D01*
G75*
G02*
X87881000Y-91807000I-250000J0D01*
G01*
X87131000Y-91807000D01*
G75*
G02*
X86881000Y-91557000I0J250000D01*
G01*
G37*
%TD.AperFunction*%
%TO.P,D4,1*%
%TO.N,+12VA*%
%TA.AperFunction,SMDPad,CuDef*%
G36*
G01*
X84081000Y-91557000D02*
X84081000Y-90307000D01*
G75*
G02*
X84331000Y-90057000I250000J0D01*
G01*
X85081000Y-90057000D01*
G75*
G02*
X85331000Y-90307000I0J-250000D01*
G01*
X85331000Y-91557000D01*
G75*
G02*
X85081000Y-91807000I-250000J0D01*
G01*
X84331000Y-91807000D01*
G75*
G02*
X84081000Y-91557000I0J250000D01*
G01*
G37*
%TD.AperFunction*%
%TD*%
%TO.P,D3,2*%
%TO.N,Net-(D3-Pad2)*%
%TA.AperFunction,SMDPad,CuDef*%
G36*
G01*
X86881000Y-93843000D02*
X86881000Y-92593000D01*
G75*
G02*
X87131000Y-92343000I250000J0D01*
G01*
X87881000Y-92343000D01*
G75*
G02*
X88131000Y-92593000I0J-250000D01*
G01*
X88131000Y-93843000D01*
G75*
G02*
X87881000Y-94093000I-250000J0D01*
G01*
X87131000Y-94093000D01*
G75*
G02*
X86881000Y-93843000I0J250000D01*
G01*
G37*
%TD.AperFunction*%
%TO.P,D3,1*%
%TO.N,+12VA*%
%TA.AperFunction,SMDPad,CuDef*%
G36*
G01*
X84081000Y-93843000D02*
X84081000Y-92593000D01*
G75*
G02*
X84331000Y-92343000I250000J0D01*
G01*
X85081000Y-92343000D01*
G75*
G02*
X85331000Y-92593000I0J-250000D01*
G01*
X85331000Y-93843000D01*
G75*
G02*
X85081000Y-94093000I-250000J0D01*
G01*
X84331000Y-94093000D01*
G75*
G02*
X84081000Y-93843000I0J250000D01*
G01*
G37*
%TD.AperFunction*%
%TD*%
%TO.P,D2,2*%
%TO.N,Net-(D2-Pad2)*%
%TA.AperFunction,SMDPad,CuDef*%
G36*
G01*
X86881000Y-96383000D02*
X86881000Y-95133000D01*
G75*
G02*
X87131000Y-94883000I250000J0D01*
G01*
X87881000Y-94883000D01*
G75*
G02*
X88131000Y-95133000I0J-250000D01*
G01*
X88131000Y-96383000D01*
G75*
G02*
X87881000Y-96633000I-250000J0D01*
G01*
X87131000Y-96633000D01*
G75*
G02*
X86881000Y-96383000I0J250000D01*
G01*
G37*
%TD.AperFunction*%
%TO.P,D2,1*%
%TO.N,+12VA*%
%TA.AperFunction,SMDPad,CuDef*%
G36*
G01*
X84081000Y-96383000D02*
X84081000Y-95133000D01*
G75*
G02*
X84331000Y-94883000I250000J0D01*
G01*
X85081000Y-94883000D01*
G75*
G02*
X85331000Y-95133000I0J-250000D01*
G01*
X85331000Y-96383000D01*
G75*
G02*
X85081000Y-96633000I-250000J0D01*
G01*
X84331000Y-96633000D01*
G75*
G02*
X84081000Y-96383000I0J250000D01*
G01*
G37*
%TD.AperFunction*%
%TD*%
%TO.P,D1,2*%
%TO.N,Net-(D1-Pad2)*%
%TA.AperFunction,SMDPad,CuDef*%
G36*
G01*
X86881000Y-98669000D02*
X86881000Y-97419000D01*
G75*
G02*
X87131000Y-97169000I250000J0D01*
G01*
X87881000Y-97169000D01*
G75*
G02*
X88131000Y-97419000I0J-250000D01*
G01*
X88131000Y-98669000D01*
G75*
G02*
X87881000Y-98919000I-250000J0D01*
G01*
X87131000Y-98919000D01*
G75*
G02*
X86881000Y-98669000I0J250000D01*
G01*
G37*
%TD.AperFunction*%
%TO.P,D1,1*%
%TO.N,+12VA*%
%TA.AperFunction,SMDPad,CuDef*%
G36*
G01*
X84081000Y-98669000D02*
X84081000Y-97419000D01*
G75*
G02*
X84331000Y-97169000I250000J0D01*
G01*
X85081000Y-97169000D01*
G75*
G02*
X85331000Y-97419000I0J-250000D01*
G01*
X85331000Y-98669000D01*
G75*
G02*
X85081000Y-98919000I-250000J0D01*
G01*
X84331000Y-98919000D01*
G75*
G02*
X84081000Y-98669000I0J250000D01*
G01*
G37*
%TD.AperFunction*%
%TD*%
%TO.P,C2,2*%
%TO.N,GNDD*%
%TA.AperFunction,SMDPad,CuDef*%
G36*
G01*
X104010000Y-97823000D02*
X104010000Y-98773000D01*
G75*
G02*
X103760000Y-99023000I-250000J0D01*
G01*
X103260000Y-99023000D01*
G75*
G02*
X103010000Y-98773000I0J250000D01*
G01*
X103010000Y-97823000D01*
G75*
G02*
X103260000Y-97573000I250000J0D01*
G01*
X103760000Y-97573000D01*
G75*
G02*
X104010000Y-97823000I0J-250000D01*
G01*
G37*
%TD.AperFunction*%
%TO.P,C2,1*%
%TO.N,Net-(C2-Pad1)*%
%TA.AperFunction,SMDPad,CuDef*%
G36*
G01*
X105910000Y-97823000D02*
X105910000Y-98773000D01*
G75*
G02*
X105660000Y-99023000I-250000J0D01*
G01*
X105160000Y-99023000D01*
G75*
G02*
X104910000Y-98773000I0J250000D01*
G01*
X104910000Y-97823000D01*
G75*
G02*
X105160000Y-97573000I250000J0D01*
G01*
X105660000Y-97573000D01*
G75*
G02*
X105910000Y-97823000I0J-250000D01*
G01*
G37*
%TD.AperFunction*%
%TD*%
%TO.P,C1,2*%
%TO.N,GNDD*%
%TA.AperFunction,SMDPad,CuDef*%
G36*
G01*
X99698000Y-86581000D02*
X99698000Y-85631000D01*
G75*
G02*
X99948000Y-85381000I250000J0D01*
G01*
X100448000Y-85381000D01*
G75*
G02*
X100698000Y-85631000I0J-250000D01*
G01*
X100698000Y-86581000D01*
G75*
G02*
X100448000Y-86831000I-250000J0D01*
G01*
X99948000Y-86831000D01*
G75*
G02*
X99698000Y-86581000I0J250000D01*
G01*
G37*
%TD.AperFunction*%
%TO.P,C1,1*%
%TO.N,+12VA*%
%TA.AperFunction,SMDPad,CuDef*%
G36*
G01*
X97798000Y-86581000D02*
X97798000Y-85631000D01*
G75*
G02*
X98048000Y-85381000I250000J0D01*
G01*
X98548000Y-85381000D01*
G75*
G02*
X98798000Y-85631000I0J-250000D01*
G01*
X98798000Y-86581000D01*
G75*
G02*
X98548000Y-86831000I-250000J0D01*
G01*
X98048000Y-86831000D01*
G75*
G02*
X97798000Y-86581000I0J250000D01*
G01*
G37*
%TD.AperFunction*%
%TD*%
D15*
%TO.N,+12VA*%
X86614000Y-86868000D03*
%TO.N,*%
X83820000Y-98298000D03*
%TO.N,+12VA*%
X100076000Y-98298000D03*
X86614000Y-86868000D03*
X97282000Y-86868000D03*
%TD*%
D16*
%TO.N,GNDD*%
X96600510Y-84930990D02*
X95679500Y-85852000D01*
X99022990Y-84930990D02*
X96600510Y-84930990D01*
X100198000Y-86106000D02*
X99022990Y-84930990D01*
X101346000Y-86106000D02*
X101854000Y-85598000D01*
X100198000Y-86106000D02*
X101346000Y-86106000D01*
X100735010Y-88782990D02*
X100298000Y-89220000D01*
X100735010Y-86716990D02*
X100735010Y-88782990D01*
X101854000Y-85598000D02*
X100735010Y-86716990D01*
X101354020Y-89402000D02*
X100735010Y-88782990D01*
X102362000Y-89402000D02*
X101354020Y-89402000D01*
X103004010Y-84447990D02*
X101854000Y-85598000D01*
X105674203Y-84447990D02*
X103004010Y-84447990D01*
X106426000Y-85199787D02*
X105674203Y-84447990D01*
X106426000Y-86614000D02*
X106426000Y-85199787D01*
X102283500Y-98298000D02*
X101346000Y-97360500D01*
X103510000Y-98298000D02*
X102283500Y-98298000D01*
X101346000Y-96134000D02*
X101600000Y-95880000D01*
X101346000Y-97360500D02*
X101346000Y-96134000D01*
X101346000Y-97282000D02*
X99822000Y-95758000D01*
X101346000Y-97360500D02*
X101346000Y-97282000D01*
X98649000Y-96931000D02*
X99822000Y-95758000D01*
X98649000Y-97536000D02*
X98649000Y-96931000D01*
X97054956Y-100893010D02*
X95051010Y-100893010D01*
X95051010Y-100893010D02*
X93726000Y-99568000D01*
X97465010Y-100482956D02*
X97054956Y-100893010D01*
X97465010Y-98719990D02*
X97465010Y-100482956D01*
X98649000Y-97536000D02*
X97465010Y-98719990D01*
X107876001Y-88064001D02*
X106426000Y-86614000D01*
X107876001Y-98305253D02*
X107876001Y-88064001D01*
X105180244Y-101001010D02*
X107876001Y-98305253D01*
X95159010Y-101001010D02*
X105180244Y-101001010D01*
X93726000Y-99568000D02*
X95159010Y-101001010D01*
%TO.N,+12VA*%
X95764000Y-87376000D02*
X96520000Y-88132000D01*
X94742000Y-87376000D02*
X95764000Y-87376000D01*
X97987000Y-88132000D02*
X98235000Y-87884000D01*
X96520000Y-88132000D02*
X97987000Y-88132000D01*
X98298000Y-87821000D02*
X98235000Y-87884000D01*
X98298000Y-86106000D02*
X98298000Y-87821000D01*
X97536000Y-86868000D02*
X98298000Y-86106000D01*
X97282000Y-86868000D02*
X97536000Y-86868000D01*
X84706000Y-88776000D02*
X86614000Y-86868000D01*
X84706000Y-98044000D02*
X84706000Y-88776000D01*
X99822000Y-98936000D02*
X99190000Y-99568000D01*
X99822000Y-98298000D02*
X99822000Y-98936000D01*
%TO.N,Net-(C2-Pad1)*%
X106426000Y-95122000D02*
X105028000Y-96520000D01*
X106426000Y-94234000D02*
X106426000Y-95122000D01*
X105028000Y-97916000D02*
X105410000Y-98298000D01*
X105028000Y-96520000D02*
X105028000Y-97916000D01*
X105410000Y-99377000D02*
X104711000Y-100076000D01*
X105410000Y-98298000D02*
X105410000Y-99377000D01*
%TO.N,Net-(D1-Pad2)*%
X89916000Y-98044000D02*
X90170000Y-98298000D01*
X87506000Y-98044000D02*
X89916000Y-98044000D01*
%TO.N,Net-(D2-Pad2)*%
X90170000Y-95758000D02*
X87506000Y-95758000D01*
%TO.N,Net-(D3-Pad2)*%
X87506000Y-93218000D02*
X90170000Y-93218000D01*
%TO.N,Net-(D4-Pad2)*%
X87760000Y-90678000D02*
X87506000Y-90932000D01*
X90170000Y-90678000D02*
X87760000Y-90678000D01*
%TO.N,Net-(D5-Pad2)*%
X93850000Y-97028000D02*
X93726000Y-97028000D01*
X96390000Y-99568000D02*
X93850000Y-97028000D01*
%TO.N,Net-(D6-Pad2)*%
X94996000Y-89408000D02*
X93726000Y-89408000D01*
X96520000Y-90932000D02*
X94996000Y-89408000D01*
%TO.N,Net-(D7-Pad2)*%
X93092000Y-86564500D02*
X93804500Y-85852000D01*
X93092000Y-87376000D02*
X93092000Y-86564500D01*
%TO.N,Net-(D8-Pad2)*%
X96774000Y-96710000D02*
X97980000Y-95504000D01*
X96774000Y-97536000D02*
X96774000Y-96710000D01*
%TO.N,Net-(D9-Pad1)*%
X98800000Y-93980000D02*
X99822000Y-92958000D01*
X98044000Y-93980000D02*
X98800000Y-93980000D01*
X100844000Y-93980000D02*
X99822000Y-92958000D01*
X101600000Y-93980000D02*
X100844000Y-93980000D01*
%TO.N,Net-(D10-Pad1)*%
X104014000Y-90550000D02*
X102362000Y-92202000D01*
X104140000Y-90550000D02*
X104014000Y-90550000D01*
X101380000Y-92202000D02*
X100298000Y-91120000D01*
X102362000Y-92202000D02*
X101380000Y-92202000D01*
%TO.N,Net-(D11-Pad1)*%
X102490000Y-87376000D02*
X102490000Y-87248000D01*
X103729000Y-86009000D02*
X103729000Y-85598000D01*
X102490000Y-87248000D02*
X103729000Y-86009000D01*
%TO.N,Net-(D12-Pad2)*%
X102186500Y-100076000D02*
X101346000Y-99235500D01*
X103061000Y-100076000D02*
X102186500Y-100076000D01*
%TO.N,TX*%
X95886000Y-94488000D02*
X96394000Y-93980000D01*
X93726000Y-94488000D02*
X95886000Y-94488000D01*
X96330000Y-94932000D02*
X95886000Y-94488000D01*
X96330000Y-95504000D02*
X96330000Y-94932000D01*
%TO.N,RX*%
X94234000Y-92456000D02*
X93726000Y-91948000D01*
X96266000Y-92456000D02*
X94234000Y-92456000D01*
%TO.N,utx*%
X104140000Y-87376000D02*
X104140000Y-88900000D01*
X106172000Y-88900000D02*
X106426000Y-89154000D01*
X104140000Y-88900000D02*
X106172000Y-88900000D01*
%TO.N,urx*%
X106235000Y-91885000D02*
X106426000Y-91694000D01*
X104140000Y-91885000D02*
X106235000Y-91885000D01*
%TO.N,Net-(Q1-Pad3)*%
X98298000Y-89471000D02*
X98298000Y-90170000D01*
X99885000Y-87884000D02*
X98298000Y-89471000D01*
X97916000Y-92456000D02*
X98044000Y-92456000D01*
X98298000Y-92202000D02*
X98298000Y-90170000D01*
X98044000Y-92456000D02*
X98298000Y-92202000D01*
%TO.N,Net-(Q2-Pad3)*%
X103378000Y-95152000D02*
X103600000Y-94930000D01*
X103378000Y-96520000D02*
X103378000Y-95152000D01*
X104140000Y-94390000D02*
X103600000Y-94930000D01*
X104140000Y-93535000D02*
X104140000Y-94390000D01*
%TD*%
D17*
%TO.N,GNDD*%
X108358000Y-101246000D02*
X82904000Y-101246000D01*
X82904000Y-99900899D01*
X91763407Y-99900899D01*
X91801913Y-100049637D01*
X91923239Y-100318208D01*
X92094630Y-100557949D01*
X92309498Y-100759647D01*
X92559587Y-100915551D01*
X92835286Y-101019669D01*
X93126000Y-101068000D01*
X93626000Y-101068000D01*
X93626000Y-99668000D01*
X91854641Y-99668000D01*
X91763407Y-99900899D01*
X82904000Y-99900899D01*
X82904000Y-98209358D01*
X82920000Y-98209358D01*
X82920000Y-98386642D01*
X82954586Y-98560520D01*
X83022430Y-98724310D01*
X83120924Y-98871717D01*
X83246283Y-98997076D01*
X83393690Y-99095570D01*
X83557480Y-99163414D01*
X83731358Y-99198000D01*
X83796463Y-99198000D01*
X83798959Y-99201041D01*
X83912978Y-99294614D01*
X84043062Y-99364145D01*
X84184210Y-99406961D01*
X84331000Y-99421419D01*
X85081000Y-99421419D01*
X85227790Y-99406961D01*
X85368938Y-99364145D01*
X85499022Y-99294614D01*
X85613041Y-99201041D01*
X85706614Y-99087022D01*
X85776145Y-98956938D01*
X85818961Y-98815790D01*
X85833419Y-98669000D01*
X85833419Y-97419000D01*
X85818961Y-97272210D01*
X85776145Y-97131062D01*
X85706614Y-97000978D01*
X85624564Y-96901000D01*
X85706614Y-96801022D01*
X85776145Y-96670938D01*
X85818961Y-96529790D01*
X85833419Y-96383000D01*
X85833419Y-95133000D01*
X85818961Y-94986210D01*
X85776145Y-94845062D01*
X85706614Y-94714978D01*
X85613041Y-94600959D01*
X85499022Y-94507386D01*
X85462753Y-94488000D01*
X85499022Y-94468614D01*
X85613041Y-94375041D01*
X85706614Y-94261022D01*
X85776145Y-94130938D01*
X85818961Y-93989790D01*
X85833419Y-93843000D01*
X85833419Y-92593000D01*
X85818961Y-92446210D01*
X85776145Y-92305062D01*
X85706614Y-92174978D01*
X85624564Y-92075000D01*
X85706614Y-91975022D01*
X85776145Y-91844938D01*
X85818961Y-91703790D01*
X85833419Y-91557000D01*
X85833419Y-90307000D01*
X86378581Y-90307000D01*
X86378581Y-91557000D01*
X86393039Y-91703790D01*
X86435855Y-91844938D01*
X86505386Y-91975022D01*
X86587436Y-92075000D01*
X86505386Y-92174978D01*
X86435855Y-92305062D01*
X86393039Y-92446210D01*
X86378581Y-92593000D01*
X86378581Y-93843000D01*
X86393039Y-93989790D01*
X86435855Y-94130938D01*
X86505386Y-94261022D01*
X86598959Y-94375041D01*
X86712978Y-94468614D01*
X86749247Y-94488000D01*
X86712978Y-94507386D01*
X86598959Y-94600959D01*
X86505386Y-94714978D01*
X86435855Y-94845062D01*
X86393039Y-94986210D01*
X86378581Y-95133000D01*
X86378581Y-96383000D01*
X86393039Y-96529790D01*
X86435855Y-96670938D01*
X86505386Y-96801022D01*
X86587436Y-96901000D01*
X86505386Y-97000978D01*
X86435855Y-97131062D01*
X86393039Y-97272210D01*
X86378581Y-97419000D01*
X86378581Y-98669000D01*
X86393039Y-98815790D01*
X86435855Y-98956938D01*
X86505386Y-99087022D01*
X86598959Y-99201041D01*
X86712978Y-99294614D01*
X86843062Y-99364145D01*
X86984210Y-99406961D01*
X87131000Y-99421419D01*
X87881000Y-99421419D01*
X88027790Y-99406961D01*
X88168938Y-99364145D01*
X88299022Y-99294614D01*
X88413041Y-99201041D01*
X88441842Y-99165947D01*
X88604208Y-99363792D01*
X88832613Y-99551238D01*
X89093198Y-99690524D01*
X89375949Y-99776295D01*
X89596320Y-99798000D01*
X90743680Y-99798000D01*
X90964051Y-99776295D01*
X91246802Y-99690524D01*
X91507387Y-99551238D01*
X91735792Y-99363792D01*
X91788608Y-99299435D01*
X91854641Y-99468000D01*
X93626000Y-99468000D01*
X93626000Y-99448000D01*
X93826000Y-99448000D01*
X93826000Y-99468000D01*
X93846000Y-99468000D01*
X93846000Y-99668000D01*
X93826000Y-99668000D01*
X93826000Y-101068000D01*
X94326000Y-101068000D01*
X94616714Y-101019669D01*
X94892413Y-100915551D01*
X95142502Y-100759647D01*
X95357370Y-100557949D01*
X95359457Y-100555029D01*
X95389386Y-100611022D01*
X95482959Y-100725041D01*
X95596978Y-100818614D01*
X95727062Y-100888145D01*
X95868210Y-100930961D01*
X96015000Y-100945419D01*
X96765000Y-100945419D01*
X96911790Y-100930961D01*
X97052938Y-100888145D01*
X97183022Y-100818614D01*
X97297041Y-100725041D01*
X97390614Y-100611022D01*
X97460145Y-100480938D01*
X97502961Y-100339790D01*
X97517419Y-100193000D01*
X97517419Y-98943000D01*
X97502961Y-98796210D01*
X97460145Y-98655062D01*
X97435903Y-98609709D01*
X97545371Y-98519871D01*
X97638167Y-98406799D01*
X97671753Y-98343965D01*
X97697325Y-98428267D01*
X97743754Y-98515129D01*
X97806236Y-98591264D01*
X97882371Y-98653746D01*
X97969233Y-98700175D01*
X98063483Y-98728765D01*
X98096511Y-98732018D01*
X98077039Y-98796210D01*
X98062581Y-98943000D01*
X98062581Y-100193000D01*
X98077039Y-100339790D01*
X98119855Y-100480938D01*
X98189386Y-100611022D01*
X98282959Y-100725041D01*
X98396978Y-100818614D01*
X98527062Y-100888145D01*
X98668210Y-100930961D01*
X98815000Y-100945419D01*
X99565000Y-100945419D01*
X99711790Y-100930961D01*
X99852938Y-100888145D01*
X99983022Y-100818614D01*
X100097041Y-100725041D01*
X100190614Y-100611022D01*
X100260145Y-100480938D01*
X100302961Y-100339790D01*
X100317419Y-100193000D01*
X100317419Y-99952392D01*
X100362129Y-100006871D01*
X100475201Y-100099667D01*
X100604203Y-100168620D01*
X100744180Y-100211082D01*
X100889750Y-100225419D01*
X101275259Y-100225419D01*
X101630130Y-100580291D01*
X101653605Y-100608895D01*
X101682208Y-100632369D01*
X101682215Y-100632376D01*
X101756425Y-100693278D01*
X101767807Y-100702619D01*
X101898099Y-100772261D01*
X102039474Y-100815147D01*
X102149665Y-100826000D01*
X102149682Y-100826000D01*
X102186499Y-100829626D01*
X102223316Y-100826000D01*
X102346519Y-100826000D01*
X102364315Y-100847685D01*
X102470757Y-100935040D01*
X102592196Y-100999951D01*
X102723965Y-101039922D01*
X102861000Y-101053419D01*
X103261000Y-101053419D01*
X103398035Y-101039922D01*
X103529804Y-100999951D01*
X103651243Y-100935040D01*
X103757685Y-100847685D01*
X103845040Y-100741243D01*
X103886000Y-100664613D01*
X103926960Y-100741243D01*
X104014315Y-100847685D01*
X104120757Y-100935040D01*
X104242196Y-100999951D01*
X104373965Y-101039922D01*
X104511000Y-101053419D01*
X104911000Y-101053419D01*
X105048035Y-101039922D01*
X105179804Y-100999951D01*
X105301243Y-100935040D01*
X105407685Y-100847685D01*
X105495040Y-100741243D01*
X105559951Y-100619804D01*
X105599922Y-100488035D01*
X105613419Y-100351000D01*
X105613419Y-100234241D01*
X105914291Y-99933370D01*
X105942895Y-99909895D01*
X105966369Y-99881292D01*
X105966376Y-99881285D01*
X106004236Y-99835151D01*
X106036619Y-99795693D01*
X106106261Y-99665401D01*
X106140892Y-99551238D01*
X106149147Y-99524027D01*
X106150609Y-99509183D01*
X106160000Y-99413835D01*
X106160000Y-99413829D01*
X106163627Y-99377001D01*
X106160000Y-99340173D01*
X106160000Y-99331336D01*
X106192041Y-99305041D01*
X106285614Y-99191022D01*
X106355145Y-99060938D01*
X106397961Y-98919790D01*
X106412419Y-98773000D01*
X106412419Y-97823000D01*
X106397961Y-97676210D01*
X106355145Y-97535062D01*
X106285614Y-97404978D01*
X106192041Y-97290959D01*
X106078022Y-97197386D01*
X105947938Y-97127855D01*
X105857395Y-97100390D01*
X105876951Y-97063804D01*
X105916922Y-96932035D01*
X105930419Y-96795000D01*
X105930419Y-96678240D01*
X106872241Y-95736419D01*
X107426000Y-95736419D01*
X107524017Y-95726765D01*
X107618267Y-95698175D01*
X107705129Y-95651746D01*
X107781264Y-95589264D01*
X107843746Y-95513129D01*
X107890175Y-95426267D01*
X107918765Y-95332017D01*
X107928419Y-95234000D01*
X107928419Y-93234000D01*
X107918765Y-93135983D01*
X107890175Y-93041733D01*
X107843746Y-92954871D01*
X107781264Y-92878736D01*
X107705129Y-92816254D01*
X107618267Y-92769825D01*
X107524017Y-92741235D01*
X107502231Y-92739089D01*
X107591126Y-92650194D01*
X107755283Y-92404517D01*
X107868356Y-92131534D01*
X107926000Y-91841737D01*
X107926000Y-91546263D01*
X107868356Y-91256466D01*
X107755283Y-90983483D01*
X107591126Y-90737806D01*
X107382194Y-90528874D01*
X107225240Y-90424000D01*
X107382194Y-90319126D01*
X107591126Y-90110194D01*
X107755283Y-89864517D01*
X107868356Y-89591534D01*
X107926000Y-89301737D01*
X107926000Y-89006263D01*
X107868356Y-88716466D01*
X107755283Y-88443483D01*
X107591126Y-88197806D01*
X107382194Y-87988874D01*
X107219320Y-87880044D01*
X107293270Y-87837868D01*
X107515370Y-87645156D01*
X107695607Y-87412817D01*
X107827053Y-87149780D01*
X107888593Y-86946899D01*
X107797359Y-86714000D01*
X106526000Y-86714000D01*
X106526000Y-86734000D01*
X106326000Y-86734000D01*
X106326000Y-86714000D01*
X105054641Y-86714000D01*
X104997413Y-86860091D01*
X104988951Y-86832196D01*
X104924040Y-86710757D01*
X104836685Y-86604315D01*
X104730243Y-86516960D01*
X104608804Y-86452049D01*
X104603053Y-86450304D01*
X104662120Y-86339797D01*
X104679925Y-86281101D01*
X104963407Y-86281101D01*
X105054641Y-86514000D01*
X106326000Y-86514000D01*
X106326000Y-85242333D01*
X106526000Y-85242333D01*
X106526000Y-86514000D01*
X107797359Y-86514000D01*
X107888593Y-86281101D01*
X107827053Y-86078220D01*
X107695607Y-85815183D01*
X107515370Y-85582844D01*
X107293270Y-85390132D01*
X107037841Y-85244452D01*
X106758899Y-85151403D01*
X106526000Y-85242333D01*
X106326000Y-85242333D01*
X106093101Y-85151403D01*
X105814159Y-85244452D01*
X105558730Y-85390132D01*
X105336630Y-85582844D01*
X105156393Y-85815183D01*
X105024947Y-86078220D01*
X104963407Y-86281101D01*
X104679925Y-86281101D01*
X104704582Y-86199820D01*
X104718919Y-86054250D01*
X104718919Y-85141750D01*
X104704582Y-84996180D01*
X104662120Y-84856203D01*
X104593167Y-84727201D01*
X104500371Y-84614129D01*
X104387299Y-84521333D01*
X104258297Y-84452380D01*
X104118320Y-84409918D01*
X103972750Y-84395581D01*
X103485250Y-84395581D01*
X103339680Y-84409918D01*
X103199703Y-84452380D01*
X103070701Y-84521333D01*
X102957629Y-84614129D01*
X102864833Y-84727201D01*
X102831247Y-84790035D01*
X102805675Y-84705733D01*
X102759246Y-84618871D01*
X102696764Y-84542736D01*
X102620629Y-84480254D01*
X102533767Y-84433825D01*
X102439517Y-84405235D01*
X102341500Y-84395581D01*
X102079000Y-84398000D01*
X101954000Y-84523000D01*
X101954000Y-85498000D01*
X101974000Y-85498000D01*
X101974000Y-85698000D01*
X101954000Y-85698000D01*
X101954000Y-85718000D01*
X101754000Y-85718000D01*
X101754000Y-85698000D01*
X101734000Y-85698000D01*
X101734000Y-85498000D01*
X101754000Y-85498000D01*
X101754000Y-84523000D01*
X101629000Y-84398000D01*
X101366500Y-84395581D01*
X101268483Y-84405235D01*
X101174233Y-84433825D01*
X101087371Y-84480254D01*
X101011236Y-84542736D01*
X100948754Y-84618871D01*
X100902325Y-84705733D01*
X100873735Y-84799983D01*
X100864081Y-84898000D01*
X100864137Y-84908899D01*
X100796017Y-84888235D01*
X100698000Y-84878581D01*
X100423000Y-84881000D01*
X100298000Y-85006000D01*
X100298000Y-86006000D01*
X100318000Y-86006000D01*
X100318000Y-86206000D01*
X100298000Y-86206000D01*
X100298000Y-86226000D01*
X100098000Y-86226000D01*
X100098000Y-86206000D01*
X100078000Y-86206000D01*
X100078000Y-86006000D01*
X100098000Y-86006000D01*
X100098000Y-85006000D01*
X99973000Y-84881000D01*
X99698000Y-84878581D01*
X99599983Y-84888235D01*
X99505733Y-84916825D01*
X99418871Y-84963254D01*
X99342736Y-85025736D01*
X99280254Y-85101871D01*
X99233825Y-85188733D01*
X99207334Y-85276064D01*
X99173614Y-85212978D01*
X99080041Y-85098959D01*
X98966022Y-85005386D01*
X98835938Y-84935855D01*
X98694790Y-84893039D01*
X98548000Y-84878581D01*
X98048000Y-84878581D01*
X97901210Y-84893039D01*
X97760062Y-84935855D01*
X97629978Y-85005386D01*
X97515959Y-85098959D01*
X97422386Y-85212978D01*
X97352855Y-85343062D01*
X97310039Y-85484210D01*
X97295581Y-85631000D01*
X97295581Y-85968000D01*
X97193358Y-85968000D01*
X97019480Y-86002586D01*
X96855690Y-86070430D01*
X96708283Y-86168924D01*
X96667675Y-86209532D01*
X96667000Y-86077000D01*
X96542000Y-85952000D01*
X95779500Y-85952000D01*
X95779500Y-85972000D01*
X95579500Y-85972000D01*
X95579500Y-85952000D01*
X95559500Y-85952000D01*
X95559500Y-85752000D01*
X95579500Y-85752000D01*
X95579500Y-84777000D01*
X95779500Y-84777000D01*
X95779500Y-85752000D01*
X96542000Y-85752000D01*
X96667000Y-85627000D01*
X96669419Y-85152000D01*
X96659765Y-85053983D01*
X96631175Y-84959733D01*
X96584746Y-84872871D01*
X96522264Y-84796736D01*
X96446129Y-84734254D01*
X96359267Y-84687825D01*
X96265017Y-84659235D01*
X96167000Y-84649581D01*
X95904500Y-84652000D01*
X95779500Y-84777000D01*
X95579500Y-84777000D01*
X95454500Y-84652000D01*
X95192000Y-84649581D01*
X95093983Y-84659235D01*
X94999733Y-84687825D01*
X94912871Y-84734254D01*
X94836736Y-84796736D01*
X94774254Y-84872871D01*
X94727825Y-84959733D01*
X94702253Y-85044035D01*
X94668667Y-84981201D01*
X94575871Y-84868129D01*
X94462799Y-84775333D01*
X94333797Y-84706380D01*
X94193820Y-84663918D01*
X94048250Y-84649581D01*
X93560750Y-84649581D01*
X93415180Y-84663918D01*
X93275203Y-84706380D01*
X93146201Y-84775333D01*
X93033129Y-84868129D01*
X92940333Y-84981201D01*
X92871380Y-85110203D01*
X92828918Y-85250180D01*
X92814581Y-85395750D01*
X92814581Y-85781260D01*
X92587715Y-86008126D01*
X92559106Y-86031605D01*
X92535627Y-86060214D01*
X92535624Y-86060217D01*
X92508131Y-86093718D01*
X92465382Y-86145807D01*
X92459920Y-86156026D01*
X92395739Y-86276100D01*
X92352853Y-86417475D01*
X92349718Y-86449307D01*
X92342000Y-86527665D01*
X92342000Y-86527673D01*
X92338373Y-86564500D01*
X92342000Y-86601327D01*
X92342000Y-86669279D01*
X92307960Y-86710757D01*
X92243049Y-86832196D01*
X92203078Y-86963965D01*
X92189581Y-87101000D01*
X92189581Y-87651000D01*
X92203078Y-87788035D01*
X92238735Y-87905581D01*
X92226000Y-87905581D01*
X92127983Y-87915235D01*
X92033733Y-87943825D01*
X91946871Y-87990254D01*
X91870736Y-88052736D01*
X91808254Y-88128871D01*
X91761825Y-88215733D01*
X91733235Y-88309983D01*
X91723581Y-88408000D01*
X91723581Y-89602187D01*
X91507387Y-89424762D01*
X91246802Y-89285476D01*
X90964051Y-89199705D01*
X90743680Y-89178000D01*
X89596320Y-89178000D01*
X89375949Y-89199705D01*
X89093198Y-89285476D01*
X88832613Y-89424762D01*
X88604208Y-89612208D01*
X88441842Y-89810053D01*
X88413041Y-89774959D01*
X88299022Y-89681386D01*
X88168938Y-89611855D01*
X88027790Y-89569039D01*
X87881000Y-89554581D01*
X87131000Y-89554581D01*
X86984210Y-89569039D01*
X86843062Y-89611855D01*
X86712978Y-89681386D01*
X86598959Y-89774959D01*
X86505386Y-89888978D01*
X86435855Y-90019062D01*
X86393039Y-90160210D01*
X86378581Y-90307000D01*
X85833419Y-90307000D01*
X85818961Y-90160210D01*
X85776145Y-90019062D01*
X85706614Y-89888978D01*
X85613041Y-89774959D01*
X85499022Y-89681386D01*
X85456000Y-89658390D01*
X85456000Y-89086659D01*
X86792543Y-87750118D01*
X86876520Y-87733414D01*
X87040310Y-87665570D01*
X87187717Y-87567076D01*
X87313076Y-87441717D01*
X87411570Y-87294310D01*
X87479414Y-87130520D01*
X87514000Y-86956642D01*
X87514000Y-86779358D01*
X87479414Y-86605480D01*
X87411570Y-86441690D01*
X87313076Y-86294283D01*
X87187717Y-86168924D01*
X87040310Y-86070430D01*
X86876520Y-86002586D01*
X86702642Y-85968000D01*
X86525358Y-85968000D01*
X86351480Y-86002586D01*
X86187690Y-86070430D01*
X86040283Y-86168924D01*
X85914924Y-86294283D01*
X85816430Y-86441690D01*
X85748586Y-86605480D01*
X85731882Y-86689457D01*
X84201715Y-88219626D01*
X84173106Y-88243105D01*
X84149627Y-88271714D01*
X84149624Y-88271717D01*
X84143627Y-88279025D01*
X84079382Y-88357307D01*
X84074145Y-88367105D01*
X84009739Y-88487600D01*
X83966853Y-88628975D01*
X83952373Y-88776000D01*
X83956001Y-88812837D01*
X83956001Y-89658390D01*
X83912978Y-89681386D01*
X83798959Y-89774959D01*
X83705386Y-89888978D01*
X83635855Y-90019062D01*
X83593039Y-90160210D01*
X83578581Y-90307000D01*
X83578581Y-91557000D01*
X83593039Y-91703790D01*
X83635855Y-91844938D01*
X83705386Y-91975022D01*
X83787436Y-92075000D01*
X83705386Y-92174978D01*
X83635855Y-92305062D01*
X83593039Y-92446210D01*
X83578581Y-92593000D01*
X83578581Y-93843000D01*
X83593039Y-93989790D01*
X83635855Y-94130938D01*
X83705386Y-94261022D01*
X83798959Y-94375041D01*
X83912978Y-94468614D01*
X83949247Y-94488000D01*
X83912978Y-94507386D01*
X83798959Y-94600959D01*
X83705386Y-94714978D01*
X83635855Y-94845062D01*
X83593039Y-94986210D01*
X83578581Y-95133000D01*
X83578581Y-96383000D01*
X83593039Y-96529790D01*
X83635855Y-96670938D01*
X83705386Y-96801022D01*
X83787436Y-96901000D01*
X83705386Y-97000978D01*
X83635855Y-97131062D01*
X83593039Y-97272210D01*
X83578581Y-97419000D01*
X83578581Y-97428389D01*
X83557480Y-97432586D01*
X83393690Y-97500430D01*
X83246283Y-97598924D01*
X83120924Y-97724283D01*
X83022430Y-97871690D01*
X82954586Y-98035480D01*
X82920000Y-98209358D01*
X82904000Y-98209358D01*
X82904000Y-83920000D01*
X108358000Y-83920000D01*
X108358000Y-101246000D01*
%TA.AperFunction,Conductor*%
D18*
G36*
X108358000Y-101246000D02*
G01*
X82904000Y-101246000D01*
X82904000Y-99900899D01*
X91763407Y-99900899D01*
X91801913Y-100049637D01*
X91923239Y-100318208D01*
X92094630Y-100557949D01*
X92309498Y-100759647D01*
X92559587Y-100915551D01*
X92835286Y-101019669D01*
X93126000Y-101068000D01*
X93626000Y-101068000D01*
X93626000Y-99668000D01*
X91854641Y-99668000D01*
X91763407Y-99900899D01*
X82904000Y-99900899D01*
X82904000Y-98209358D01*
X82920000Y-98209358D01*
X82920000Y-98386642D01*
X82954586Y-98560520D01*
X83022430Y-98724310D01*
X83120924Y-98871717D01*
X83246283Y-98997076D01*
X83393690Y-99095570D01*
X83557480Y-99163414D01*
X83731358Y-99198000D01*
X83796463Y-99198000D01*
X83798959Y-99201041D01*
X83912978Y-99294614D01*
X84043062Y-99364145D01*
X84184210Y-99406961D01*
X84331000Y-99421419D01*
X85081000Y-99421419D01*
X85227790Y-99406961D01*
X85368938Y-99364145D01*
X85499022Y-99294614D01*
X85613041Y-99201041D01*
X85706614Y-99087022D01*
X85776145Y-98956938D01*
X85818961Y-98815790D01*
X85833419Y-98669000D01*
X85833419Y-97419000D01*
X85818961Y-97272210D01*
X85776145Y-97131062D01*
X85706614Y-97000978D01*
X85624564Y-96901000D01*
X85706614Y-96801022D01*
X85776145Y-96670938D01*
X85818961Y-96529790D01*
X85833419Y-96383000D01*
X85833419Y-95133000D01*
X85818961Y-94986210D01*
X85776145Y-94845062D01*
X85706614Y-94714978D01*
X85613041Y-94600959D01*
X85499022Y-94507386D01*
X85462753Y-94488000D01*
X85499022Y-94468614D01*
X85613041Y-94375041D01*
X85706614Y-94261022D01*
X85776145Y-94130938D01*
X85818961Y-93989790D01*
X85833419Y-93843000D01*
X85833419Y-92593000D01*
X85818961Y-92446210D01*
X85776145Y-92305062D01*
X85706614Y-92174978D01*
X85624564Y-92075000D01*
X85706614Y-91975022D01*
X85776145Y-91844938D01*
X85818961Y-91703790D01*
X85833419Y-91557000D01*
X85833419Y-90307000D01*
X86378581Y-90307000D01*
X86378581Y-91557000D01*
X86393039Y-91703790D01*
X86435855Y-91844938D01*
X86505386Y-91975022D01*
X86587436Y-92075000D01*
X86505386Y-92174978D01*
X86435855Y-92305062D01*
X86393039Y-92446210D01*
X86378581Y-92593000D01*
X86378581Y-93843000D01*
X86393039Y-93989790D01*
X86435855Y-94130938D01*
X86505386Y-94261022D01*
X86598959Y-94375041D01*
X86712978Y-94468614D01*
X86749247Y-94488000D01*
X86712978Y-94507386D01*
X86598959Y-94600959D01*
X86505386Y-94714978D01*
X86435855Y-94845062D01*
X86393039Y-94986210D01*
X86378581Y-95133000D01*
X86378581Y-96383000D01*
X86393039Y-96529790D01*
X86435855Y-96670938D01*
X86505386Y-96801022D01*
X86587436Y-96901000D01*
X86505386Y-97000978D01*
X86435855Y-97131062D01*
X86393039Y-97272210D01*
X86378581Y-97419000D01*
X86378581Y-98669000D01*
X86393039Y-98815790D01*
X86435855Y-98956938D01*
X86505386Y-99087022D01*
X86598959Y-99201041D01*
X86712978Y-99294614D01*
X86843062Y-99364145D01*
X86984210Y-99406961D01*
X87131000Y-99421419D01*
X87881000Y-99421419D01*
X88027790Y-99406961D01*
X88168938Y-99364145D01*
X88299022Y-99294614D01*
X88413041Y-99201041D01*
X88441842Y-99165947D01*
X88604208Y-99363792D01*
X88832613Y-99551238D01*
X89093198Y-99690524D01*
X89375949Y-99776295D01*
X89596320Y-99798000D01*
X90743680Y-99798000D01*
X90964051Y-99776295D01*
X91246802Y-99690524D01*
X91507387Y-99551238D01*
X91735792Y-99363792D01*
X91788608Y-99299435D01*
X91854641Y-99468000D01*
X93626000Y-99468000D01*
X93626000Y-99448000D01*
X93826000Y-99448000D01*
X93826000Y-99468000D01*
X93846000Y-99468000D01*
X93846000Y-99668000D01*
X93826000Y-99668000D01*
X93826000Y-101068000D01*
X94326000Y-101068000D01*
X94616714Y-101019669D01*
X94892413Y-100915551D01*
X95142502Y-100759647D01*
X95357370Y-100557949D01*
X95359457Y-100555029D01*
X95389386Y-100611022D01*
X95482959Y-100725041D01*
X95596978Y-100818614D01*
X95727062Y-100888145D01*
X95868210Y-100930961D01*
X96015000Y-100945419D01*
X96765000Y-100945419D01*
X96911790Y-100930961D01*
X97052938Y-100888145D01*
X97183022Y-100818614D01*
X97297041Y-100725041D01*
X97390614Y-100611022D01*
X97460145Y-100480938D01*
X97502961Y-100339790D01*
X97517419Y-100193000D01*
X97517419Y-98943000D01*
X97502961Y-98796210D01*
X97460145Y-98655062D01*
X97435903Y-98609709D01*
X97545371Y-98519871D01*
X97638167Y-98406799D01*
X97671753Y-98343965D01*
X97697325Y-98428267D01*
X97743754Y-98515129D01*
X97806236Y-98591264D01*
X97882371Y-98653746D01*
X97969233Y-98700175D01*
X98063483Y-98728765D01*
X98096511Y-98732018D01*
X98077039Y-98796210D01*
X98062581Y-98943000D01*
X98062581Y-100193000D01*
X98077039Y-100339790D01*
X98119855Y-100480938D01*
X98189386Y-100611022D01*
X98282959Y-100725041D01*
X98396978Y-100818614D01*
X98527062Y-100888145D01*
X98668210Y-100930961D01*
X98815000Y-100945419D01*
X99565000Y-100945419D01*
X99711790Y-100930961D01*
X99852938Y-100888145D01*
X99983022Y-100818614D01*
X100097041Y-100725041D01*
X100190614Y-100611022D01*
X100260145Y-100480938D01*
X100302961Y-100339790D01*
X100317419Y-100193000D01*
X100317419Y-99952392D01*
X100362129Y-100006871D01*
X100475201Y-100099667D01*
X100604203Y-100168620D01*
X100744180Y-100211082D01*
X100889750Y-100225419D01*
X101275259Y-100225419D01*
X101630130Y-100580291D01*
X101653605Y-100608895D01*
X101682208Y-100632369D01*
X101682215Y-100632376D01*
X101756425Y-100693278D01*
X101767807Y-100702619D01*
X101898099Y-100772261D01*
X102039474Y-100815147D01*
X102149665Y-100826000D01*
X102149682Y-100826000D01*
X102186499Y-100829626D01*
X102223316Y-100826000D01*
X102346519Y-100826000D01*
X102364315Y-100847685D01*
X102470757Y-100935040D01*
X102592196Y-100999951D01*
X102723965Y-101039922D01*
X102861000Y-101053419D01*
X103261000Y-101053419D01*
X103398035Y-101039922D01*
X103529804Y-100999951D01*
X103651243Y-100935040D01*
X103757685Y-100847685D01*
X103845040Y-100741243D01*
X103886000Y-100664613D01*
X103926960Y-100741243D01*
X104014315Y-100847685D01*
X104120757Y-100935040D01*
X104242196Y-100999951D01*
X104373965Y-101039922D01*
X104511000Y-101053419D01*
X104911000Y-101053419D01*
X105048035Y-101039922D01*
X105179804Y-100999951D01*
X105301243Y-100935040D01*
X105407685Y-100847685D01*
X105495040Y-100741243D01*
X105559951Y-100619804D01*
X105599922Y-100488035D01*
X105613419Y-100351000D01*
X105613419Y-100234241D01*
X105914291Y-99933370D01*
X105942895Y-99909895D01*
X105966369Y-99881292D01*
X105966376Y-99881285D01*
X106004236Y-99835151D01*
X106036619Y-99795693D01*
X106106261Y-99665401D01*
X106140892Y-99551238D01*
X106149147Y-99524027D01*
X106150609Y-99509183D01*
X106160000Y-99413835D01*
X106160000Y-99413829D01*
X106163627Y-99377001D01*
X106160000Y-99340173D01*
X106160000Y-99331336D01*
X106192041Y-99305041D01*
X106285614Y-99191022D01*
X106355145Y-99060938D01*
X106397961Y-98919790D01*
X106412419Y-98773000D01*
X106412419Y-97823000D01*
X106397961Y-97676210D01*
X106355145Y-97535062D01*
X106285614Y-97404978D01*
X106192041Y-97290959D01*
X106078022Y-97197386D01*
X105947938Y-97127855D01*
X105857395Y-97100390D01*
X105876951Y-97063804D01*
X105916922Y-96932035D01*
X105930419Y-96795000D01*
X105930419Y-96678240D01*
X106872241Y-95736419D01*
X107426000Y-95736419D01*
X107524017Y-95726765D01*
X107618267Y-95698175D01*
X107705129Y-95651746D01*
X107781264Y-95589264D01*
X107843746Y-95513129D01*
X107890175Y-95426267D01*
X107918765Y-95332017D01*
X107928419Y-95234000D01*
X107928419Y-93234000D01*
X107918765Y-93135983D01*
X107890175Y-93041733D01*
X107843746Y-92954871D01*
X107781264Y-92878736D01*
X107705129Y-92816254D01*
X107618267Y-92769825D01*
X107524017Y-92741235D01*
X107502231Y-92739089D01*
X107591126Y-92650194D01*
X107755283Y-92404517D01*
X107868356Y-92131534D01*
X107926000Y-91841737D01*
X107926000Y-91546263D01*
X107868356Y-91256466D01*
X107755283Y-90983483D01*
X107591126Y-90737806D01*
X107382194Y-90528874D01*
X107225240Y-90424000D01*
X107382194Y-90319126D01*
X107591126Y-90110194D01*
X107755283Y-89864517D01*
X107868356Y-89591534D01*
X107926000Y-89301737D01*
X107926000Y-89006263D01*
X107868356Y-88716466D01*
X107755283Y-88443483D01*
X107591126Y-88197806D01*
X107382194Y-87988874D01*
X107219320Y-87880044D01*
X107293270Y-87837868D01*
X107515370Y-87645156D01*
X107695607Y-87412817D01*
X107827053Y-87149780D01*
X107888593Y-86946899D01*
X107797359Y-86714000D01*
X106526000Y-86714000D01*
X106526000Y-86734000D01*
X106326000Y-86734000D01*
X106326000Y-86714000D01*
X105054641Y-86714000D01*
X104997413Y-86860091D01*
X104988951Y-86832196D01*
X104924040Y-86710757D01*
X104836685Y-86604315D01*
X104730243Y-86516960D01*
X104608804Y-86452049D01*
X104603053Y-86450304D01*
X104662120Y-86339797D01*
X104679925Y-86281101D01*
X104963407Y-86281101D01*
X105054641Y-86514000D01*
X106326000Y-86514000D01*
X106326000Y-85242333D01*
X106526000Y-85242333D01*
X106526000Y-86514000D01*
X107797359Y-86514000D01*
X107888593Y-86281101D01*
X107827053Y-86078220D01*
X107695607Y-85815183D01*
X107515370Y-85582844D01*
X107293270Y-85390132D01*
X107037841Y-85244452D01*
X106758899Y-85151403D01*
X106526000Y-85242333D01*
X106326000Y-85242333D01*
X106093101Y-85151403D01*
X105814159Y-85244452D01*
X105558730Y-85390132D01*
X105336630Y-85582844D01*
X105156393Y-85815183D01*
X105024947Y-86078220D01*
X104963407Y-86281101D01*
X104679925Y-86281101D01*
X104704582Y-86199820D01*
X104718919Y-86054250D01*
X104718919Y-85141750D01*
X104704582Y-84996180D01*
X104662120Y-84856203D01*
X104593167Y-84727201D01*
X104500371Y-84614129D01*
X104387299Y-84521333D01*
X104258297Y-84452380D01*
X104118320Y-84409918D01*
X103972750Y-84395581D01*
X103485250Y-84395581D01*
X103339680Y-84409918D01*
X103199703Y-84452380D01*
X103070701Y-84521333D01*
X102957629Y-84614129D01*
X102864833Y-84727201D01*
X102831247Y-84790035D01*
X102805675Y-84705733D01*
X102759246Y-84618871D01*
X102696764Y-84542736D01*
X102620629Y-84480254D01*
X102533767Y-84433825D01*
X102439517Y-84405235D01*
X102341500Y-84395581D01*
X102079000Y-84398000D01*
X101954000Y-84523000D01*
X101954000Y-85498000D01*
X101974000Y-85498000D01*
X101974000Y-85698000D01*
X101954000Y-85698000D01*
X101954000Y-85718000D01*
X101754000Y-85718000D01*
X101754000Y-85698000D01*
X101734000Y-85698000D01*
X101734000Y-85498000D01*
X101754000Y-85498000D01*
X101754000Y-84523000D01*
X101629000Y-84398000D01*
X101366500Y-84395581D01*
X101268483Y-84405235D01*
X101174233Y-84433825D01*
X101087371Y-84480254D01*
X101011236Y-84542736D01*
X100948754Y-84618871D01*
X100902325Y-84705733D01*
X100873735Y-84799983D01*
X100864081Y-84898000D01*
X100864137Y-84908899D01*
X100796017Y-84888235D01*
X100698000Y-84878581D01*
X100423000Y-84881000D01*
X100298000Y-85006000D01*
X100298000Y-86006000D01*
X100318000Y-86006000D01*
X100318000Y-86206000D01*
X100298000Y-86206000D01*
X100298000Y-86226000D01*
X100098000Y-86226000D01*
X100098000Y-86206000D01*
X100078000Y-86206000D01*
X100078000Y-86006000D01*
X100098000Y-86006000D01*
X100098000Y-85006000D01*
X99973000Y-84881000D01*
X99698000Y-84878581D01*
X99599983Y-84888235D01*
X99505733Y-84916825D01*
X99418871Y-84963254D01*
X99342736Y-85025736D01*
X99280254Y-85101871D01*
X99233825Y-85188733D01*
X99207334Y-85276064D01*
X99173614Y-85212978D01*
X99080041Y-85098959D01*
X98966022Y-85005386D01*
X98835938Y-84935855D01*
X98694790Y-84893039D01*
X98548000Y-84878581D01*
X98048000Y-84878581D01*
X97901210Y-84893039D01*
X97760062Y-84935855D01*
X97629978Y-85005386D01*
X97515959Y-85098959D01*
X97422386Y-85212978D01*
X97352855Y-85343062D01*
X97310039Y-85484210D01*
X97295581Y-85631000D01*
X97295581Y-85968000D01*
X97193358Y-85968000D01*
X97019480Y-86002586D01*
X96855690Y-86070430D01*
X96708283Y-86168924D01*
X96667675Y-86209532D01*
X96667000Y-86077000D01*
X96542000Y-85952000D01*
X95779500Y-85952000D01*
X95779500Y-85972000D01*
X95579500Y-85972000D01*
X95579500Y-85952000D01*
X95559500Y-85952000D01*
X95559500Y-85752000D01*
X95579500Y-85752000D01*
X95579500Y-84777000D01*
X95779500Y-84777000D01*
X95779500Y-85752000D01*
X96542000Y-85752000D01*
X96667000Y-85627000D01*
X96669419Y-85152000D01*
X96659765Y-85053983D01*
X96631175Y-84959733D01*
X96584746Y-84872871D01*
X96522264Y-84796736D01*
X96446129Y-84734254D01*
X96359267Y-84687825D01*
X96265017Y-84659235D01*
X96167000Y-84649581D01*
X95904500Y-84652000D01*
X95779500Y-84777000D01*
X95579500Y-84777000D01*
X95454500Y-84652000D01*
X95192000Y-84649581D01*
X95093983Y-84659235D01*
X94999733Y-84687825D01*
X94912871Y-84734254D01*
X94836736Y-84796736D01*
X94774254Y-84872871D01*
X94727825Y-84959733D01*
X94702253Y-85044035D01*
X94668667Y-84981201D01*
X94575871Y-84868129D01*
X94462799Y-84775333D01*
X94333797Y-84706380D01*
X94193820Y-84663918D01*
X94048250Y-84649581D01*
X93560750Y-84649581D01*
X93415180Y-84663918D01*
X93275203Y-84706380D01*
X93146201Y-84775333D01*
X93033129Y-84868129D01*
X92940333Y-84981201D01*
X92871380Y-85110203D01*
X92828918Y-85250180D01*
X92814581Y-85395750D01*
X92814581Y-85781260D01*
X92587715Y-86008126D01*
X92559106Y-86031605D01*
X92535627Y-86060214D01*
X92535624Y-86060217D01*
X92508131Y-86093718D01*
X92465382Y-86145807D01*
X92459920Y-86156026D01*
X92395739Y-86276100D01*
X92352853Y-86417475D01*
X92349718Y-86449307D01*
X92342000Y-86527665D01*
X92342000Y-86527673D01*
X92338373Y-86564500D01*
X92342000Y-86601327D01*
X92342000Y-86669279D01*
X92307960Y-86710757D01*
X92243049Y-86832196D01*
X92203078Y-86963965D01*
X92189581Y-87101000D01*
X92189581Y-87651000D01*
X92203078Y-87788035D01*
X92238735Y-87905581D01*
X92226000Y-87905581D01*
X92127983Y-87915235D01*
X92033733Y-87943825D01*
X91946871Y-87990254D01*
X91870736Y-88052736D01*
X91808254Y-88128871D01*
X91761825Y-88215733D01*
X91733235Y-88309983D01*
X91723581Y-88408000D01*
X91723581Y-89602187D01*
X91507387Y-89424762D01*
X91246802Y-89285476D01*
X90964051Y-89199705D01*
X90743680Y-89178000D01*
X89596320Y-89178000D01*
X89375949Y-89199705D01*
X89093198Y-89285476D01*
X88832613Y-89424762D01*
X88604208Y-89612208D01*
X88441842Y-89810053D01*
X88413041Y-89774959D01*
X88299022Y-89681386D01*
X88168938Y-89611855D01*
X88027790Y-89569039D01*
X87881000Y-89554581D01*
X87131000Y-89554581D01*
X86984210Y-89569039D01*
X86843062Y-89611855D01*
X86712978Y-89681386D01*
X86598959Y-89774959D01*
X86505386Y-89888978D01*
X86435855Y-90019062D01*
X86393039Y-90160210D01*
X86378581Y-90307000D01*
X85833419Y-90307000D01*
X85818961Y-90160210D01*
X85776145Y-90019062D01*
X85706614Y-89888978D01*
X85613041Y-89774959D01*
X85499022Y-89681386D01*
X85456000Y-89658390D01*
X85456000Y-89086659D01*
X86792543Y-87750118D01*
X86876520Y-87733414D01*
X87040310Y-87665570D01*
X87187717Y-87567076D01*
X87313076Y-87441717D01*
X87411570Y-87294310D01*
X87479414Y-87130520D01*
X87514000Y-86956642D01*
X87514000Y-86779358D01*
X87479414Y-86605480D01*
X87411570Y-86441690D01*
X87313076Y-86294283D01*
X87187717Y-86168924D01*
X87040310Y-86070430D01*
X86876520Y-86002586D01*
X86702642Y-85968000D01*
X86525358Y-85968000D01*
X86351480Y-86002586D01*
X86187690Y-86070430D01*
X86040283Y-86168924D01*
X85914924Y-86294283D01*
X85816430Y-86441690D01*
X85748586Y-86605480D01*
X85731882Y-86689457D01*
X84201715Y-88219626D01*
X84173106Y-88243105D01*
X84149627Y-88271714D01*
X84149624Y-88271717D01*
X84143627Y-88279025D01*
X84079382Y-88357307D01*
X84074145Y-88367105D01*
X84009739Y-88487600D01*
X83966853Y-88628975D01*
X83952373Y-88776000D01*
X83956001Y-88812837D01*
X83956001Y-89658390D01*
X83912978Y-89681386D01*
X83798959Y-89774959D01*
X83705386Y-89888978D01*
X83635855Y-90019062D01*
X83593039Y-90160210D01*
X83578581Y-90307000D01*
X83578581Y-91557000D01*
X83593039Y-91703790D01*
X83635855Y-91844938D01*
X83705386Y-91975022D01*
X83787436Y-92075000D01*
X83705386Y-92174978D01*
X83635855Y-92305062D01*
X83593039Y-92446210D01*
X83578581Y-92593000D01*
X83578581Y-93843000D01*
X83593039Y-93989790D01*
X83635855Y-94130938D01*
X83705386Y-94261022D01*
X83798959Y-94375041D01*
X83912978Y-94468614D01*
X83949247Y-94488000D01*
X83912978Y-94507386D01*
X83798959Y-94600959D01*
X83705386Y-94714978D01*
X83635855Y-94845062D01*
X83593039Y-94986210D01*
X83578581Y-95133000D01*
X83578581Y-96383000D01*
X83593039Y-96529790D01*
X83635855Y-96670938D01*
X83705386Y-96801022D01*
X83787436Y-96901000D01*
X83705386Y-97000978D01*
X83635855Y-97131062D01*
X83593039Y-97272210D01*
X83578581Y-97419000D01*
X83578581Y-97428389D01*
X83557480Y-97432586D01*
X83393690Y-97500430D01*
X83246283Y-97598924D01*
X83120924Y-97724283D01*
X83022430Y-97871690D01*
X82954586Y-98035480D01*
X82920000Y-98209358D01*
X82904000Y-98209358D01*
X82904000Y-83920000D01*
X108358000Y-83920000D01*
X108358000Y-101246000D01*
G37*
%TD.AperFunction*%
D17*
X102510000Y-98073000D02*
X102635000Y-98198000D01*
X103410000Y-98198000D01*
X103410000Y-98178000D01*
X103610000Y-98178000D01*
X103610000Y-98198000D01*
X103630000Y-98198000D01*
X103630000Y-98398000D01*
X103610000Y-98398000D01*
X103610000Y-98418000D01*
X103410000Y-98418000D01*
X103410000Y-98398000D01*
X102635000Y-98398000D01*
X102510000Y-98523000D01*
X102508839Y-98762966D01*
X102491620Y-98706203D01*
X102422667Y-98577201D01*
X102329871Y-98464129D01*
X102216799Y-98371333D01*
X102153965Y-98337747D01*
X102238267Y-98312175D01*
X102325129Y-98265746D01*
X102401264Y-98203264D01*
X102463746Y-98127129D01*
X102509845Y-98040885D01*
X102510000Y-98073000D01*
%TA.AperFunction,Conductor*%
D18*
G36*
X102510000Y-98073000D02*
G01*
X102635000Y-98198000D01*
X103410000Y-98198000D01*
X103410000Y-98178000D01*
X103610000Y-98178000D01*
X103610000Y-98198000D01*
X103630000Y-98198000D01*
X103630000Y-98398000D01*
X103610000Y-98398000D01*
X103610000Y-98418000D01*
X103410000Y-98418000D01*
X103410000Y-98398000D01*
X102635000Y-98398000D01*
X102510000Y-98523000D01*
X102508839Y-98762966D01*
X102491620Y-98706203D01*
X102422667Y-98577201D01*
X102329871Y-98464129D01*
X102216799Y-98371333D01*
X102153965Y-98337747D01*
X102238267Y-98312175D01*
X102325129Y-98265746D01*
X102401264Y-98203264D01*
X102463746Y-98127129D01*
X102509845Y-98040885D01*
X102510000Y-98073000D01*
G37*
%TD.AperFunction*%
D17*
X98749000Y-97436000D02*
X98769000Y-97436000D01*
X98769000Y-97636000D01*
X98749000Y-97636000D01*
X98749000Y-97656000D01*
X98549000Y-97656000D01*
X98549000Y-97636000D01*
X98529000Y-97636000D01*
X98529000Y-97436000D01*
X98549000Y-97436000D01*
X98549000Y-97416000D01*
X98749000Y-97416000D01*
X98749000Y-97436000D01*
%TA.AperFunction,Conductor*%
D18*
G36*
X98749000Y-97436000D02*
G01*
X98769000Y-97436000D01*
X98769000Y-97636000D01*
X98749000Y-97636000D01*
X98749000Y-97656000D01*
X98549000Y-97656000D01*
X98549000Y-97636000D01*
X98529000Y-97636000D01*
X98529000Y-97436000D01*
X98549000Y-97436000D01*
X98549000Y-97416000D01*
X98749000Y-97416000D01*
X98749000Y-97436000D01*
G37*
%TD.AperFunction*%
D17*
X100287625Y-94484285D02*
X100311105Y-94512895D01*
X100339714Y-94536374D01*
X100339716Y-94536376D01*
X100341872Y-94538145D01*
X100425307Y-94606619D01*
X100471706Y-94631419D01*
X100047000Y-94633000D01*
X99922000Y-94758000D01*
X99922000Y-95658000D01*
X99942000Y-95658000D01*
X99942000Y-95858000D01*
X99922000Y-95858000D01*
X99922000Y-96758000D01*
X100047000Y-96883000D01*
X100143676Y-96883360D01*
X100146000Y-97135500D01*
X100271000Y-97260500D01*
X101246000Y-97260500D01*
X101246000Y-97240500D01*
X101446000Y-97240500D01*
X101446000Y-97260500D01*
X102421000Y-97260500D01*
X102546000Y-97135500D01*
X102546362Y-97096194D01*
X102593960Y-97185243D01*
X102637681Y-97238517D01*
X102592254Y-97293871D01*
X102545825Y-97380733D01*
X102517235Y-97474983D01*
X102509905Y-97549405D01*
X102421000Y-97460500D01*
X101446000Y-97460500D01*
X101446000Y-97480500D01*
X101246000Y-97480500D01*
X101246000Y-97460500D01*
X100405910Y-97460500D01*
X100338520Y-97432586D01*
X100164642Y-97398000D01*
X99987358Y-97398000D01*
X99813480Y-97432586D01*
X99649690Y-97500430D01*
X99636500Y-97509243D01*
X99636500Y-97435998D01*
X99511502Y-97435998D01*
X99636500Y-97311000D01*
X99638893Y-96841107D01*
X99722000Y-96758000D01*
X99722000Y-95858000D01*
X99702000Y-95858000D01*
X99702000Y-95658000D01*
X99722000Y-95658000D01*
X99722000Y-94758000D01*
X99597000Y-94633000D01*
X99172294Y-94631419D01*
X99218693Y-94606619D01*
X99332895Y-94512895D01*
X99356378Y-94484281D01*
X99755240Y-94085419D01*
X99888759Y-94085419D01*
X100287625Y-94484285D01*
%TA.AperFunction,Conductor*%
D18*
G36*
X100287625Y-94484285D02*
G01*
X100311105Y-94512895D01*
X100339714Y-94536374D01*
X100339716Y-94536376D01*
X100341872Y-94538145D01*
X100425307Y-94606619D01*
X100471706Y-94631419D01*
X100047000Y-94633000D01*
X99922000Y-94758000D01*
X99922000Y-95658000D01*
X99942000Y-95658000D01*
X99942000Y-95858000D01*
X99922000Y-95858000D01*
X99922000Y-96758000D01*
X100047000Y-96883000D01*
X100143676Y-96883360D01*
X100146000Y-97135500D01*
X100271000Y-97260500D01*
X101246000Y-97260500D01*
X101246000Y-97240500D01*
X101446000Y-97240500D01*
X101446000Y-97260500D01*
X102421000Y-97260500D01*
X102546000Y-97135500D01*
X102546362Y-97096194D01*
X102593960Y-97185243D01*
X102637681Y-97238517D01*
X102592254Y-97293871D01*
X102545825Y-97380733D01*
X102517235Y-97474983D01*
X102509905Y-97549405D01*
X102421000Y-97460500D01*
X101446000Y-97460500D01*
X101446000Y-97480500D01*
X101246000Y-97480500D01*
X101246000Y-97460500D01*
X100405910Y-97460500D01*
X100338520Y-97432586D01*
X100164642Y-97398000D01*
X99987358Y-97398000D01*
X99813480Y-97432586D01*
X99649690Y-97500430D01*
X99636500Y-97509243D01*
X99636500Y-97435998D01*
X99511502Y-97435998D01*
X99636500Y-97311000D01*
X99638893Y-96841107D01*
X99722000Y-96758000D01*
X99722000Y-95858000D01*
X99702000Y-95858000D01*
X99702000Y-95658000D01*
X99722000Y-95658000D01*
X99722000Y-94758000D01*
X99597000Y-94633000D01*
X99172294Y-94631419D01*
X99218693Y-94606619D01*
X99332895Y-94512895D01*
X99356378Y-94484281D01*
X99755240Y-94085419D01*
X99888759Y-94085419D01*
X100287625Y-94484285D01*
G37*
%TD.AperFunction*%
D17*
X103162581Y-93335000D02*
X103162581Y-93735000D01*
X103176078Y-93872035D01*
X103216049Y-94003804D01*
X103228758Y-94027581D01*
X103150000Y-94027581D01*
X103051983Y-94037235D01*
X102957733Y-94065825D01*
X102870871Y-94112254D01*
X102794736Y-94174736D01*
X102732254Y-94250871D01*
X102685825Y-94337733D01*
X102657235Y-94431983D01*
X102647581Y-94530000D01*
X102647581Y-94976203D01*
X102638853Y-95004975D01*
X102624373Y-95152000D01*
X102628001Y-95188837D01*
X102628001Y-95813279D01*
X102593960Y-95854757D01*
X102529049Y-95976196D01*
X102503947Y-96058947D01*
X102425000Y-95980000D01*
X101700000Y-95980000D01*
X101700000Y-96000000D01*
X101500000Y-96000000D01*
X101500000Y-95980000D01*
X101480000Y-95980000D01*
X101480000Y-95780000D01*
X101500000Y-95780000D01*
X101500000Y-95105000D01*
X101700000Y-95105000D01*
X101700000Y-95780000D01*
X102425000Y-95780000D01*
X102550000Y-95655000D01*
X102552419Y-95480000D01*
X102542765Y-95381983D01*
X102514175Y-95287733D01*
X102467746Y-95200871D01*
X102405264Y-95124736D01*
X102329129Y-95062254D01*
X102242267Y-95015825D01*
X102148017Y-94987235D01*
X102050000Y-94977581D01*
X101825000Y-94980000D01*
X101700000Y-95105000D01*
X101500000Y-95105000D01*
X101375000Y-94980000D01*
X101172426Y-94977822D01*
X101161175Y-94940733D01*
X101128894Y-94880340D01*
X101150000Y-94882419D01*
X102050000Y-94882419D01*
X102148017Y-94872765D01*
X102242267Y-94844175D01*
X102329129Y-94797746D01*
X102405264Y-94735264D01*
X102467746Y-94659129D01*
X102514175Y-94572267D01*
X102542765Y-94478017D01*
X102552419Y-94380000D01*
X102552419Y-93580000D01*
X102542765Y-93481983D01*
X102514175Y-93387733D01*
X102483005Y-93329419D01*
X102987000Y-93329419D01*
X103133790Y-93314961D01*
X103165502Y-93305341D01*
X103162581Y-93335000D01*
%TA.AperFunction,Conductor*%
D18*
G36*
X103162581Y-93335000D02*
G01*
X103162581Y-93735000D01*
X103176078Y-93872035D01*
X103216049Y-94003804D01*
X103228758Y-94027581D01*
X103150000Y-94027581D01*
X103051983Y-94037235D01*
X102957733Y-94065825D01*
X102870871Y-94112254D01*
X102794736Y-94174736D01*
X102732254Y-94250871D01*
X102685825Y-94337733D01*
X102657235Y-94431983D01*
X102647581Y-94530000D01*
X102647581Y-94976203D01*
X102638853Y-95004975D01*
X102624373Y-95152000D01*
X102628001Y-95188837D01*
X102628001Y-95813279D01*
X102593960Y-95854757D01*
X102529049Y-95976196D01*
X102503947Y-96058947D01*
X102425000Y-95980000D01*
X101700000Y-95980000D01*
X101700000Y-96000000D01*
X101500000Y-96000000D01*
X101500000Y-95980000D01*
X101480000Y-95980000D01*
X101480000Y-95780000D01*
X101500000Y-95780000D01*
X101500000Y-95105000D01*
X101700000Y-95105000D01*
X101700000Y-95780000D01*
X102425000Y-95780000D01*
X102550000Y-95655000D01*
X102552419Y-95480000D01*
X102542765Y-95381983D01*
X102514175Y-95287733D01*
X102467746Y-95200871D01*
X102405264Y-95124736D01*
X102329129Y-95062254D01*
X102242267Y-95015825D01*
X102148017Y-94987235D01*
X102050000Y-94977581D01*
X101825000Y-94980000D01*
X101700000Y-95105000D01*
X101500000Y-95105000D01*
X101375000Y-94980000D01*
X101172426Y-94977822D01*
X101161175Y-94940733D01*
X101128894Y-94880340D01*
X101150000Y-94882419D01*
X102050000Y-94882419D01*
X102148017Y-94872765D01*
X102242267Y-94844175D01*
X102329129Y-94797746D01*
X102405264Y-94735264D01*
X102467746Y-94659129D01*
X102514175Y-94572267D01*
X102542765Y-94478017D01*
X102552419Y-94380000D01*
X102552419Y-93580000D01*
X102542765Y-93481983D01*
X102514175Y-93387733D01*
X102483005Y-93329419D01*
X102987000Y-93329419D01*
X103133790Y-93314961D01*
X103165502Y-93305341D01*
X103162581Y-93335000D01*
G37*
%TD.AperFunction*%
D17*
X100398000Y-89120000D02*
X100418000Y-89120000D01*
X100418000Y-89320000D01*
X100398000Y-89320000D01*
X100398000Y-89995000D01*
X100523000Y-90120000D01*
X100748000Y-90122419D01*
X100846017Y-90112765D01*
X100940267Y-90084175D01*
X100987714Y-90058814D01*
X100994235Y-90125017D01*
X101022825Y-90219267D01*
X101069254Y-90306129D01*
X101131736Y-90382264D01*
X101207871Y-90444746D01*
X101294733Y-90491175D01*
X101388983Y-90519765D01*
X101487000Y-90529419D01*
X102137000Y-90527000D01*
X102262000Y-90402000D01*
X102262000Y-89502000D01*
X102242000Y-89502000D01*
X102242000Y-89302000D01*
X102262000Y-89302000D01*
X102262000Y-89282000D01*
X102462000Y-89282000D01*
X102462000Y-89302000D01*
X102482000Y-89302000D01*
X102482000Y-89502000D01*
X102462000Y-89502000D01*
X102462000Y-90402000D01*
X102587000Y-90527000D01*
X102974897Y-90528444D01*
X102428760Y-91074581D01*
X101737000Y-91074581D01*
X101590210Y-91089039D01*
X101449062Y-91131855D01*
X101397875Y-91159215D01*
X101250419Y-91011760D01*
X101250419Y-90720000D01*
X101240765Y-90621983D01*
X101212175Y-90527733D01*
X101165746Y-90440871D01*
X101103264Y-90364736D01*
X101027129Y-90302254D01*
X100940267Y-90255825D01*
X100846017Y-90227235D01*
X100748000Y-90217581D01*
X99848000Y-90217581D01*
X99749983Y-90227235D01*
X99655733Y-90255825D01*
X99568871Y-90302254D01*
X99492736Y-90364736D01*
X99430254Y-90440871D01*
X99383825Y-90527733D01*
X99355235Y-90621983D01*
X99345581Y-90720000D01*
X99345581Y-91520000D01*
X99355235Y-91618017D01*
X99383825Y-91712267D01*
X99430254Y-91799129D01*
X99456066Y-91830581D01*
X99197000Y-91830581D01*
X99050210Y-91845039D01*
X99048000Y-91845709D01*
X99048000Y-90970618D01*
X99103264Y-90925264D01*
X99165746Y-90849129D01*
X99212175Y-90762267D01*
X99240765Y-90668017D01*
X99250419Y-90570000D01*
X99250419Y-89770000D01*
X99240765Y-89671983D01*
X99221427Y-89608232D01*
X99347486Y-89482173D01*
X99345581Y-89620000D01*
X99355235Y-89718017D01*
X99383825Y-89812267D01*
X99430254Y-89899129D01*
X99492736Y-89975264D01*
X99568871Y-90037746D01*
X99655733Y-90084175D01*
X99749983Y-90112765D01*
X99848000Y-90122419D01*
X100073000Y-90120000D01*
X100198000Y-89995000D01*
X100198000Y-89320000D01*
X100178000Y-89320000D01*
X100178000Y-89120000D01*
X100198000Y-89120000D01*
X100198000Y-89100000D01*
X100398000Y-89100000D01*
X100398000Y-89120000D01*
%TA.AperFunction,Conductor*%
D18*
G36*
X100398000Y-89120000D02*
G01*
X100418000Y-89120000D01*
X100418000Y-89320000D01*
X100398000Y-89320000D01*
X100398000Y-89995000D01*
X100523000Y-90120000D01*
X100748000Y-90122419D01*
X100846017Y-90112765D01*
X100940267Y-90084175D01*
X100987714Y-90058814D01*
X100994235Y-90125017D01*
X101022825Y-90219267D01*
X101069254Y-90306129D01*
X101131736Y-90382264D01*
X101207871Y-90444746D01*
X101294733Y-90491175D01*
X101388983Y-90519765D01*
X101487000Y-90529419D01*
X102137000Y-90527000D01*
X102262000Y-90402000D01*
X102262000Y-89502000D01*
X102242000Y-89502000D01*
X102242000Y-89302000D01*
X102262000Y-89302000D01*
X102262000Y-89282000D01*
X102462000Y-89282000D01*
X102462000Y-89302000D01*
X102482000Y-89302000D01*
X102482000Y-89502000D01*
X102462000Y-89502000D01*
X102462000Y-90402000D01*
X102587000Y-90527000D01*
X102974897Y-90528444D01*
X102428760Y-91074581D01*
X101737000Y-91074581D01*
X101590210Y-91089039D01*
X101449062Y-91131855D01*
X101397875Y-91159215D01*
X101250419Y-91011760D01*
X101250419Y-90720000D01*
X101240765Y-90621983D01*
X101212175Y-90527733D01*
X101165746Y-90440871D01*
X101103264Y-90364736D01*
X101027129Y-90302254D01*
X100940267Y-90255825D01*
X100846017Y-90227235D01*
X100748000Y-90217581D01*
X99848000Y-90217581D01*
X99749983Y-90227235D01*
X99655733Y-90255825D01*
X99568871Y-90302254D01*
X99492736Y-90364736D01*
X99430254Y-90440871D01*
X99383825Y-90527733D01*
X99355235Y-90621983D01*
X99345581Y-90720000D01*
X99345581Y-91520000D01*
X99355235Y-91618017D01*
X99383825Y-91712267D01*
X99430254Y-91799129D01*
X99456066Y-91830581D01*
X99197000Y-91830581D01*
X99050210Y-91845039D01*
X99048000Y-91845709D01*
X99048000Y-90970618D01*
X99103264Y-90925264D01*
X99165746Y-90849129D01*
X99212175Y-90762267D01*
X99240765Y-90668017D01*
X99250419Y-90570000D01*
X99250419Y-89770000D01*
X99240765Y-89671983D01*
X99221427Y-89608232D01*
X99347486Y-89482173D01*
X99345581Y-89620000D01*
X99355235Y-89718017D01*
X99383825Y-89812267D01*
X99430254Y-89899129D01*
X99492736Y-89975264D01*
X99568871Y-90037746D01*
X99655733Y-90084175D01*
X99749983Y-90112765D01*
X99848000Y-90122419D01*
X100073000Y-90120000D01*
X100198000Y-89995000D01*
X100198000Y-89320000D01*
X100178000Y-89320000D01*
X100178000Y-89120000D01*
X100198000Y-89120000D01*
X100198000Y-89100000D01*
X100398000Y-89100000D01*
X100398000Y-89120000D01*
G37*
%TD.AperFunction*%
%TD*%
M02*
